<svg version="1.1" xmlns="http://www.w3.org/2000/svg" viewBox="0 0 838 983.2095950757433" width="838" height="983.2095950757433" class="excalidraw-svg">
  <!-- svg-source:excalidraw -->
  
  <defs>
    <style class="style-fonts">
      
    </style>
    
  </defs>
  <rect x="0" y="0" width="838" height="983.2095950757433" fill="#ffffff"></rect><g stroke-linecap="round" transform="translate(10 58.822296637715795) rotate(0 409 63)"><path d="M31.5 0 C240.51 -0.3, 449.27 -0.14, 786.5 0 M31.5 0 C317.74 -0.07, 603.93 0.08, 786.5 0 M786.5 0 C807.52 -1.4, 818.12 10.03, 818 31.5 M786.5 0 C808.33 -0.07, 819.64 10.3, 818 31.5 M818 31.5 C818.32 52.98, 819.6 72.02, 818 94.5 M818 31.5 C818.06 48.61, 817.08 67.28, 818 94.5 M818 94.5 C816.12 117, 807.99 124.28, 786.5 126 M818 94.5 C819.99 115.36, 806.01 124.44, 786.5 126 M786.5 126 C488.66 124.93, 190.26 125.22, 31.5 126 M786.5 126 C511.78 126.41, 237.82 127, 31.5 126 M31.5 126 C9.27 126.82, 1.93 116.5, 0 94.5 M31.5 126 C10.19 125.77, 0.67 115.11, 0 94.5 M0 94.5 C-1.28 72.19, 0.19 49.54, 0 31.5 M0 94.5 C-0.92 80.05, -0.87 63.98, 0 31.5 M0 31.5 C-0.61 11.49, 11.81 1.3, 31.5 0 M0 31.5 C-0.19 12.47, 11.84 0.58, 31.5 0" stroke="#1e1e1e" stroke-width="1" fill="none"></path></g><g stroke-linecap="round" transform="translate(12 205.8222966377158) rotate(0 67 62.5)"><path d="M7.66 7.99 C7.66 7.99, 7.66 7.99, 7.66 7.99 M7.66 7.99 C7.66 7.99, 7.66 7.99, 7.66 7.99 M0.84 21.93 C3.79 14.4, 10.03 9.23, 17.9 2.31 M0.84 21.93 C5.97 16.19, 10 11.91, 17.9 2.31 M1.23 27.57 C5.97 19.37, 11.94 14.9, 24.2 1.16 M1.23 27.57 C6.7 20.74, 12.7 13.67, 24.2 1.16 M0.97 33.97 C12.64 21.04, 23.79 8.83, 29.84 0.76 M0.97 33.97 C11.48 22.16, 23.35 8.2, 29.84 0.76 M1.37 39.61 C12.89 27.83, 23.72 12.14, 35.48 0.37 M1.37 39.61 C9.74 31.89, 16.8 22.3, 35.48 0.37 M1.11 46.01 C10.29 34.84, 17.82 25.13, 41.13 -0.03 M1.11 46.01 C13.42 32.66, 25.9 18.09, 41.13 -0.03 M1.5 51.66 C10.3 41.56, 22.78 27.14, 46.11 0.33 M1.5 51.66 C13.96 39.02, 24.74 24.61, 46.11 0.33 M1.24 58.05 C19.2 40.55, 33.43 22.28, 51.1 0.7 M1.24 58.05 C19.93 36.14, 39.5 14.2, 51.1 0.7 M0.98 64.45 C18.12 46.2, 35.45 25.73, 56.74 0.3 M0.98 64.45 C14.04 48.95, 27.43 35.6, 56.74 0.3 M1.37 70.09 C14 54.22, 27.69 37.58, 61.73 0.66 M1.37 70.09 C14.53 53.75, 29.79 35.67, 61.73 0.66 M1.11 76.49 C24.88 47.72, 53.9 16.29, 67.37 0.27 M1.11 76.49 C18.84 57.05, 35.61 37.39, 67.37 0.27 M1.51 82.13 C22.81 57.07, 45.09 29.95, 72.36 0.63 M1.51 82.13 C29.2 49.45, 57.84 18.35, 72.36 0.63 M1.24 88.53 C23.67 65.43, 43.67 40.81, 78 0.23 M1.24 88.53 C28.49 58.43, 55.03 26.46, 78 0.23 M0.98 94.93 C28.33 60.09, 59.9 25.73, 82.99 0.59 M0.98 94.93 C22.74 70.9, 43.94 45.59, 82.99 0.59 M0.72 101.33 C17.76 80.23, 36.02 59.15, 87.98 0.95 M0.72 101.33 C20.62 78.44, 40.95 55.44, 87.98 0.95 M1.77 106.22 C32.56 72.85, 62.02 36.33, 93.62 0.56 M1.77 106.22 C36.15 67.94, 67.92 28.27, 93.62 0.56 M3.48 110.35 C40.07 67.89, 76.74 23.9, 98.61 0.92 M3.48 110.35 C32.91 77.66, 61.69 42.91, 98.61 0.92 M5.84 113.73 C42.38 72.09, 82.09 25.41, 104.25 0.52 M5.84 113.73 C35.96 80.14, 65.69 45.12, 104.25 0.52 M8.2 117.11 C35.13 85.45, 64.96 54.28, 109.24 0.88 M8.2 117.11 C37.61 83.2, 66 50.81, 109.24 0.88 M11.22 119.73 C46.77 81.87, 81.61 40.52, 113.57 2 M11.22 119.73 C50.7 76.86, 89.04 31.56, 113.57 2 M14.9 121.6 C46.28 86.16, 75.51 50.92, 117.9 3.11 M14.9 121.6 C49.81 80.38, 87.42 36.78, 117.9 3.11 M18.57 123.47 C58.69 79.93, 97.17 33.93, 122.23 4.23 M18.57 123.47 C58.33 78.16, 96.73 35.42, 122.23 4.23 M22.9 124.59 C52.45 91.57, 83.29 54.58, 125.25 6.85 M22.9 124.59 C45.58 98.33, 66.92 75.3, 125.25 6.85 M27.89 124.95 C57.76 89.46, 87.65 57.75, 127.61 10.23 M27.89 124.95 C64.83 80.66, 103.55 36.85, 127.61 10.23 M33.53 124.55 C63.18 87.33, 96.78 52.32, 129.97 13.61 M33.53 124.55 C55.48 99.01, 78.21 74.75, 129.97 13.61 M38.52 124.91 C68.91 90.28, 96.81 58.63, 132.34 16.99 M38.52 124.91 C75.15 83.25, 110.81 42.02, 132.34 16.99 M44.16 124.52 C65.68 98.81, 89.55 69.97, 133.39 21.88 M44.16 124.52 C70.02 94.19, 95.45 64.71, 133.39 21.88 M49.15 124.88 C67.24 105.51, 86.27 84.89, 133.78 27.52 M49.15 124.88 C70.98 99.72, 92.33 73.74, 133.78 27.52 M54.14 125.24 C83.24 91.71, 111.19 60.36, 134.18 33.16 M54.14 125.24 C83.91 89.52, 113.75 56.45, 134.18 33.16 M59.78 124.84 C76.2 104.94, 95.91 83.91, 133.92 39.56 M59.78 124.84 C86.66 93.77, 113.84 63.01, 133.92 39.56 M64.77 125.2 C81.33 104.29, 98.42 83.64, 134.31 45.2 M64.77 125.2 C89.38 98.91, 111.57 70.71, 134.31 45.2 M70.41 124.81 C85.39 110.83, 97.4 95.03, 134.05 51.6 M70.41 124.81 C94.01 96.42, 117.91 69.88, 134.05 51.6 M75.4 125.17 C91.43 108.47, 107.17 88.94, 133.79 58 M75.4 125.17 C95.06 102.11, 113.04 81.19, 133.79 58 M81.04 124.77 C98.74 104.88, 117.31 80.2, 134.18 63.64 M81.04 124.77 C93.97 110.76, 105.53 96.74, 134.18 63.64 M86.03 125.13 C98.22 110.64, 112.05 95.06, 133.92 70.04 M86.03 125.13 C97.32 112.24, 106.87 101.37, 133.92 70.04 M91.67 124.74 C102.66 109.37, 117.5 94.45, 133.66 76.44 M91.67 124.74 C108.79 106.04, 125.7 86.08, 133.66 76.44 M96.66 125.1 C109.2 106.62, 126.63 92.21, 134.05 82.08 M96.66 125.1 C109.9 110.55, 123.19 95.21, 134.05 82.08 M101.65 125.46 C110.06 112.92, 121.82 102.27, 133.79 88.48 M101.65 125.46 C108.77 117.41, 114.08 109.64, 133.79 88.48 M107.94 124.31 C116.02 114.8, 122.07 109.91, 133.53 94.88 M107.94 124.31 C116.97 114.38, 126.76 103.56, 133.53 94.88 M113.59 123.92 C119.39 119.17, 123.54 114.36, 133.93 100.52 M113.59 123.92 C120.46 117.41, 126.24 110.91, 133.93 100.52 M122.51 119.75 C125.74 115.87, 129.92 111.24, 133.01 107.67 M122.51 119.75 C127.05 114.58, 129.87 110.43, 133.01 107.67" stroke="#a5d8ff" stroke-width="0.5" fill="none"></path><path d="M31.25 0 C51.68 -0.75, 70.22 -0.78, 102.75 0 M31.25 0 C53.98 -0.16, 77.73 -0.16, 102.75 0 M102.75 0 C125.39 0.8, 133.17 11.32, 134 31.25 M102.75 0 C124.55 -1.93, 135.31 8.48, 134 31.25 M134 31.25 C134.92 55.71, 133.06 77.74, 134 93.75 M134 31.25 C134.4 45.22, 132.61 58.15, 134 93.75 M134 93.75 C134.04 116.45, 124.2 123.77, 102.75 125 M134 93.75 C131.81 114.67, 123.7 124.3, 102.75 125 M102.75 125 C80.26 124.43, 61.55 124.84, 31.25 125 M102.75 125 C76.38 124.15, 48.59 124.34, 31.25 125 M31.25 125 C9.23 123.01, 1.85 113.09, 0 93.75 M31.25 125 C10.22 123.81, -0.12 113.5, 0 93.75 M0 93.75 C-0.48 69.33, 0.49 44.78, 0 31.25 M0 93.75 C-1.09 80.44, -0.31 67.6, 0 31.25 M0 31.25 C-0.22 11.82, 10.43 1.47, 31.25 0 M0 31.25 C-0.7 11.26, 9.1 -1.48, 31.25 0" stroke="#1e1e1e" stroke-width="1" fill="none"></path></g><g stroke-linecap="round" transform="translate(72 344.3222966377158) rotate(0 97.5 62.5)"><path d="M7.66 7.99 C7.66 7.99, 7.66 7.99, 7.66 7.99 M7.66 7.99 C7.66 7.99, 7.66 7.99, 7.66 7.99 M0.84 21.93 C4.11 15.8, 11.92 11.52, 17.9 2.31 M0.84 21.93 C7.68 14.19, 14.28 6.99, 17.9 2.31 M1.23 27.57 C10.99 19.24, 16.28 11.39, 24.2 1.16 M1.23 27.57 C10.25 17.04, 19.57 7.73, 24.2 1.16 M0.97 33.97 C8.39 25.34, 19.91 12.73, 29.84 0.76 M0.97 33.97 C11.44 20.49, 22.69 8.55, 29.84 0.76 M1.37 39.61 C9.73 30.83, 22.27 15.81, 35.48 0.37 M1.37 39.61 C14.23 24.71, 27.87 8.42, 35.48 0.37 M1.11 46.01 C12.29 32.65, 21.76 18.2, 41.13 -0.03 M1.11 46.01 C13.74 32.15, 24.23 18.39, 41.13 -0.03 M1.5 51.66 C15.73 34.2, 30.35 16.83, 46.11 0.33 M1.5 51.66 C18.48 31.2, 37.13 10.36, 46.11 0.33 M1.24 58.05 C16.97 39.42, 33.27 21.68, 51.76 -0.06 M1.24 58.05 C17.39 40.38, 31.98 22.75, 51.76 -0.06 M0.98 64.45 C20.05 43.8, 37.28 22.91, 56.74 0.3 M0.98 64.45 C15.89 47.08, 31.72 30.05, 56.74 0.3 M1.37 70.09 C20.28 50.91, 38.6 29.4, 61.73 0.66 M1.37 70.09 C17.77 50.62, 35.67 30.13, 61.73 0.66 M1.11 76.49 C28.68 47.61, 54.9 14.1, 67.37 0.27 M1.11 76.49 C23.56 50.36, 45.41 24.95, 67.37 0.27 M1.51 82.13 C25.71 53.7, 48.4 27.4, 72.36 0.63 M1.51 82.13 C19.27 61.76, 36.47 40.75, 72.36 0.63 M1.24 88.53 C15.48 71.77, 34.71 53.57, 78 0.23 M1.24 88.53 C23.6 64.69, 46.7 39.44, 78 0.23 M0.98 94.93 C27.26 65.72, 52.47 33.5, 82.99 0.59 M0.98 94.93 C24.85 67.46, 48.28 41.1, 82.99 0.59 M0.72 101.33 C25.34 74.13, 49.97 44.15, 88.63 0.2 M0.72 101.33 C20.17 78.73, 38.92 56.55, 88.63 0.2 M2.43 105.46 C29.88 75.96, 56.5 46.9, 93.62 0.56 M2.43 105.46 C25.15 78.73, 46.52 53.69, 93.62 0.56 M3.48 110.35 C24.62 85.12, 47.87 58.87, 99.26 0.16 M3.48 110.35 C29.09 82.06, 53.18 51.62, 99.26 0.16 M5.84 113.73 C43.77 72.48, 78.81 32.78, 104.25 0.52 M5.84 113.73 C46.02 68.67, 83.79 21.67, 104.25 0.52 M8.2 117.11 C46.33 73.76, 86 28.65, 109.89 0.13 M8.2 117.11 C42.08 79.01, 75.07 38.39, 109.89 0.13 M11.22 119.73 C48.03 76.89, 85.58 35.3, 114.88 0.49 M11.22 119.73 C33.47 95.45, 57.15 68.37, 114.88 0.49 M14.9 121.6 C49.97 79.02, 87.9 37.17, 120.52 0.09 M14.9 121.6 C51.9 78.52, 91.04 35.76, 120.52 0.09 M18.57 123.47 C59.64 76.2, 100.59 32.06, 125.51 0.45 M18.57 123.47 C56.81 77.31, 96.76 31.33, 125.51 0.45 M22.9 124.59 C48.44 94.68, 74.39 63.89, 131.15 0.06 M22.9 124.59 C52.54 92.22, 80.73 57.37, 131.15 0.06 M27.89 124.95 C51.94 96.71, 76.4 68.4, 136.14 0.42 M27.89 124.95 C67.26 78.75, 107.05 34.37, 136.14 0.42 M32.88 125.31 C58.63 96.28, 86.27 68.19, 141.78 0.02 M32.88 125.31 C55.29 98.73, 79.38 72.18, 141.78 0.02 M38.52 124.91 C61.63 97.14, 82.31 72.57, 146.77 0.38 M38.52 124.91 C68.09 88.52, 99.16 53.42, 146.77 0.38 M43.51 125.27 C71.52 95.45, 97.98 62.89, 152.41 -0.01 M43.51 125.27 C77.66 84.88, 112.34 45.18, 152.41 -0.01 M48.5 125.63 C82.52 89.9, 116.14 52.01, 157.4 0.35 M48.5 125.63 C72.74 99.23, 98.18 70.21, 157.4 0.35 M54.14 125.24 C80 95.31, 107.54 61.2, 163.04 -0.04 M54.14 125.24 C93.26 80.38, 131.71 36.12, 163.04 -0.04 M59.13 125.6 C101.44 75.15, 143.97 28.66, 167.37 1.07 M59.13 125.6 C92.29 89.67, 124.47 53.09, 167.37 1.07 M64.77 125.2 C100.76 81.85, 138.4 40.08, 172.36 1.43 M64.77 125.2 C94.51 90.98, 124.34 55.56, 172.36 1.43 M69.76 125.56 C97.82 94.78, 129.96 58.21, 177.35 1.79 M69.76 125.56 C92.27 99.4, 114.95 73.42, 177.35 1.79 M75.4 125.17 C106.06 91.61, 133.07 60.47, 181.02 3.66 M75.4 125.17 C102.7 93.88, 129.02 60.97, 181.02 3.66 M80.39 125.53 C119.07 78.18, 159.48 31.66, 184.04 6.28 M80.39 125.53 C107.92 93.42, 138.54 59.95, 184.04 6.28 M86.03 125.13 C120.32 85.81, 154.37 47.97, 187.06 8.91 M86.03 125.13 C109.99 95.76, 137.46 66.49, 187.06 8.91 M91.02 125.49 C123.75 86.98, 154.29 49.24, 190.08 11.53 M91.02 125.49 C113.76 97.64, 137.49 71.69, 190.08 11.53 M96.66 125.1 C123.92 98.71, 149.03 69.12, 191.79 15.67 M96.66 125.1 C120.82 97.07, 143.34 70.19, 191.79 15.67 M101.65 125.46 C133.04 91.36, 162.3 57.45, 193.49 19.8 M101.65 125.46 C122.78 101.84, 140.55 81.11, 193.49 19.8 M107.29 125.06 C136.24 89.29, 163.7 54.9, 195.2 23.93 M107.29 125.06 C125.87 101.76, 147.24 78.81, 195.2 23.93 M112.28 125.42 C140.66 92.64, 172.4 58.22, 194.94 30.33 M112.28 125.42 C141.12 93.98, 167.49 61.33, 194.94 30.33 M117.92 125.03 C138.36 99.14, 161.99 74.96, 194.68 36.73 M117.92 125.03 C146.15 91.22, 175.99 58.25, 194.68 36.73 M122.91 125.39 C142.34 103.09, 161.09 79.81, 195.07 42.37 M122.91 125.39 C147.38 95.89, 174.14 66.92, 195.07 42.37 M128.55 125 C155.54 95, 176.66 68.36, 194.81 48.77 M128.55 125 C148.57 102.97, 168.7 80.97, 194.81 48.77 M133.54 125.36 C156.86 98, 177.07 70.76, 195.21 54.41 M133.54 125.36 C146.88 109.05, 160.57 95.06, 195.21 54.41 M139.18 124.96 C154.75 103.28, 174.18 83.88, 194.94 60.81 M139.18 124.96 C159.57 100.16, 182.68 75.33, 194.94 60.81 M144.17 125.32 C159.68 106.12, 178.89 87.54, 195.34 66.45 M144.17 125.32 C158.88 108.72, 173.42 92.64, 195.34 66.45 M149.81 124.93 C167.95 106.75, 183.66 87.93, 195.08 72.85 M149.81 124.93 C161.68 112.7, 172.63 99.02, 195.08 72.85 M154.8 125.29 C163.42 115.1, 173.73 100.72, 195.47 78.49 M154.8 125.29 C167.5 110.94, 179.12 96.3, 195.47 78.49 M159.78 125.65 C168.76 115.34, 176.71 109.29, 195.21 84.89 M159.78 125.65 C171.98 113.35, 182.49 99.22, 195.21 84.89 M165.43 125.25 C177.82 114.01, 187.38 101.18, 195.6 90.54 M165.43 125.25 C173.84 115.91, 181.29 108.15, 195.6 90.54 M171.73 124.1 C178.2 115.04, 187.97 105.08, 195.34 96.93 M171.73 124.1 C176.01 119.54, 180.98 113.08, 195.34 96.93 M178.02 122.95 C183.86 116.19, 188.38 107.61, 194.43 104.09 M178.02 122.95 C183.48 116.54, 188.44 112.04, 194.43 104.09" stroke="#a5d8ff" stroke-width="0.5" fill="none"></path><path d="M31.25 0 C69.25 2.1, 104.83 2.16, 163.75 0 M31.25 0 C77.58 0.58, 123.5 -0.69, 163.75 0 M163.75 0 C185.78 0.83, 195.94 8.66, 195 31.25 M163.75 0 C183.97 0.37, 193.9 9.59, 195 31.25 M195 31.25 C194.92 49.06, 194.09 66.39, 195 93.75 M195 31.25 C193.86 43.38, 193.59 56.18, 195 93.75 M195 93.75 C195.1 112.81, 184.38 123.8, 163.75 125 M195 93.75 C195.43 113.35, 185.07 123.68, 163.75 125 M163.75 125 C112.62 124.76, 61.52 126.15, 31.25 125 M163.75 125 C123.97 124.43, 86.67 125.19, 31.25 125 M31.25 125 C12.21 124.21, 1.25 113.2, 0 93.75 M31.25 125 C10.57 125.17, -1.01 112.67, 0 93.75 M0 93.75 C-1.98 78.57, 0.76 58.36, 0 31.25 M0 93.75 C-1.26 78.01, -0.18 62.7, 0 31.25 M0 31.25 C1.47 12.3, 12.07 0.04, 31.25 0 M0 31.25 C-0.59 9.63, 9.86 -1.39, 31.25 0" stroke="#1e1e1e" stroke-width="1" fill="none"></path></g><g stroke-linecap="round" transform="translate(147.5 490.3222966377158) rotate(0 134.5 62.5)"><path d="M7.66 7.99 C7.66 7.99, 7.66 7.99, 7.66 7.99 M7.66 7.99 C7.66 7.99, 7.66 7.99, 7.66 7.99 M0.84 21.93 C6.53 18.37, 8.28 11.68, 17.9 2.31 M0.84 21.93 C6.93 14.99, 11.24 9.99, 17.9 2.31 M1.23 27.57 C7.43 18.07, 15.84 13.99, 24.2 1.16 M1.23 27.57 C9.01 17.8, 18.81 8.42, 24.2 1.16 M0.97 33.97 C7.23 28.26, 13.19 20.94, 29.84 0.76 M0.97 33.97 C9.68 23.66, 19.23 11.88, 29.84 0.76 M1.37 39.61 C15.39 23, 28.46 8.05, 35.48 0.37 M1.37 39.61 C11.18 30.71, 18.23 19.2, 35.48 0.37 M1.11 46.01 C13.4 33, 25.31 16.21, 41.13 -0.03 M1.11 46.01 C13.31 31.36, 26.78 16.61, 41.13 -0.03 M1.5 51.66 C18.65 31.69, 32.25 15.69, 46.11 0.33 M1.5 51.66 C17.57 32.39, 34.06 14.01, 46.11 0.33 M1.24 58.05 C21.13 39.41, 38.79 18.18, 51.76 -0.06 M1.24 58.05 C14.21 43.05, 27.97 26.05, 51.76 -0.06 M0.98 64.45 C22.75 41.33, 45.56 15.32, 56.74 0.3 M0.98 64.45 C20.64 40.32, 40.79 16.47, 56.74 0.3 M1.37 70.09 C24.26 43.55, 50.2 14.85, 61.73 0.66 M1.37 70.09 C15.9 55.21, 28.7 38.75, 61.73 0.66 M1.11 76.49 C22.68 48.51, 46.7 24.24, 67.37 0.27 M1.11 76.49 C22.48 52.09, 43.89 27.31, 67.37 0.27 M1.51 82.13 C14.07 63.32, 31.63 48.65, 72.36 0.63 M1.51 82.13 C26.83 50.53, 53.21 19.82, 72.36 0.63 M1.24 88.53 C31.56 55.63, 62.09 20.98, 78 0.23 M1.24 88.53 C24.04 64.37, 45.66 39.7, 78 0.23 M0.98 94.93 C22.83 68.82, 42.45 45, 82.99 0.59 M0.98 94.93 C30.51 60.85, 61.34 26.85, 82.99 0.59 M0.72 101.33 C35.38 62.59, 71.35 20.11, 88.63 0.2 M0.72 101.33 C30.43 66.27, 60.11 31.24, 88.63 0.2 M2.43 105.46 C30.23 74.25, 59.42 42.31, 93.62 0.56 M2.43 105.46 C22.11 80.5, 43.21 58.22, 93.62 0.56 M3.48 110.35 C34.92 76.78, 66.56 41.8, 99.26 0.16 M3.48 110.35 C39.83 65.82, 76.92 22.38, 99.26 0.16 M5.84 113.73 C25.1 89.55, 48.91 66.22, 104.25 0.52 M5.84 113.73 C43.01 71.96, 80.57 30.52, 104.25 0.52 M8.2 117.11 C48.53 73.25, 88.79 25.71, 109.89 0.13 M8.2 117.11 C40.08 82.31, 71.7 44.93, 109.89 0.13 M11.22 119.73 C43.23 83.45, 76.35 45.83, 114.88 0.49 M11.22 119.73 C40.03 86.8, 68.37 53.51, 114.88 0.49 M14.9 121.6 C57.44 74.74, 96.93 27.65, 120.52 0.09 M14.9 121.6 C56.23 74.06, 96.25 26.5, 120.52 0.09 M18.57 123.47 C44.79 91.71, 70.35 60.91, 125.51 0.45 M18.57 123.47 C57.46 78.81, 97.81 33.9, 125.51 0.45 M22.9 124.59 C57.68 85.69, 88.56 49.06, 131.15 0.06 M22.9 124.59 C60.35 80.77, 97.62 36.87, 131.15 0.06 M27.89 124.95 C64.53 81.33, 104.93 36.89, 136.14 0.42 M27.89 124.95 C60.17 88.66, 92.1 49.88, 136.14 0.42 M32.88 125.31 C67.79 87.62, 98.58 52.01, 141.78 0.02 M32.88 125.31 C64.29 89.68, 93.81 55.99, 141.78 0.02 M38.52 124.91 C65.24 93.22, 95.47 63.14, 146.77 0.38 M38.52 124.91 C77.56 81.67, 115.11 38.59, 146.77 0.38 M43.51 125.27 C83.3 75.13, 128.21 27.88, 152.41 -0.01 M43.51 125.27 C77.27 87.07, 110.46 48.24, 152.41 -0.01 M48.5 125.63 C77.69 91.96, 108.4 58.24, 157.4 0.35 M48.5 125.63 C88.83 79.18, 130.74 33.19, 157.4 0.35 M54.14 125.24 C86.15 90.14, 119.3 50.29, 163.04 -0.04 M54.14 125.24 C91.49 81.82, 128.7 39.35, 163.04 -0.04 M59.13 125.6 C83.75 97.76, 105.6 68.49, 168.03 0.32 M59.13 125.6 C86.56 94.94, 113.7 61.96, 168.03 0.32 M64.77 125.2 C88 97.09, 113.04 65.72, 173.67 -0.08 M64.77 125.2 C100.52 85.03, 135.46 44.72, 173.67 -0.08 M69.76 125.56 C93.29 100.31, 117.35 72.35, 178.66 0.28 M69.76 125.56 C98.63 93.77, 126.9 60.53, 178.66 0.28 M75.4 125.17 C105.37 91.11, 139.62 52.88, 183.65 0.64 M75.4 125.17 C117.9 78.58, 157.89 30.99, 183.65 0.64 M80.39 125.53 C105.15 95.27, 135.18 63.75, 189.29 0.25 M80.39 125.53 C113.18 88.81, 144.47 50.43, 189.29 0.25 M86.03 125.13 C116.01 89.56, 145.75 54.42, 194.28 0.61 M86.03 125.13 C112.91 94.55, 138.81 63.36, 194.28 0.61 M91.02 125.49 C117.15 96.43, 142.02 68.1, 199.92 0.21 M91.02 125.49 C116.34 97.09, 141.15 68.32, 199.92 0.21 M96.66 125.1 C127.09 90.89, 158.97 53.96, 204.91 0.57 M96.66 125.1 C126.55 90.23, 157.76 55.49, 204.91 0.57 M101.65 125.46 C135.64 86.02, 173.31 42.41, 210.55 0.18 M101.65 125.46 C146.23 77.88, 187.97 28.17, 210.55 0.18 M107.29 125.06 C140.53 85.31, 174.15 43.92, 215.54 0.54 M107.29 125.06 C131.09 96.77, 155.48 68.57, 215.54 0.54 M112.28 125.42 C140.39 96.01, 166.81 64.85, 221.18 0.14 M112.28 125.42 C139.29 92.58, 167.77 59.55, 221.18 0.14 M117.92 125.03 C142.24 97.75, 166.72 68.71, 226.17 0.5 M117.92 125.03 C144.97 94.56, 172.9 62.44, 226.17 0.5 M122.91 125.39 C162.27 78.83, 198.9 35.17, 231.81 0.11 M122.91 125.39 C161.84 80.17, 202.9 33.53, 231.81 0.11 M128.55 125 C147.52 98.62, 169.24 73.63, 236.8 0.47 M128.55 125 C161.99 86.29, 195.28 49.38, 236.8 0.47 M133.54 125.36 C170.57 86.69, 203.26 45.58, 241.79 0.83 M133.54 125.36 C155.54 98.46, 178.69 70.7, 241.79 0.83 M139.18 124.96 C171.99 85.65, 202.92 48.72, 246.77 1.19 M139.18 124.96 C179.12 79.96, 219.51 32.46, 246.77 1.19 M144.17 125.32 C177.94 88.55, 210.74 47.21, 250.45 3.06 M144.17 125.32 C181.12 83.57, 216.78 42.21, 250.45 3.06 M149.81 124.93 C181.96 87.14, 214.31 49.01, 254.78 4.17 M149.81 124.93 C172.83 97.43, 197.25 70.52, 254.78 4.17 M154.8 125.29 C195.95 81.74, 235.52 32.84, 258.45 6.04 M154.8 125.29 C182.72 94.52, 209.32 63.16, 258.45 6.04 M159.78 125.65 C188.04 95.71, 211.2 63.93, 261.47 8.67 M159.78 125.65 C186.16 96.18, 212.21 66.62, 261.47 8.67 M165.43 125.25 C195.63 93.78, 226.76 58.79, 263.83 12.05 M165.43 125.25 C196.92 88.33, 228.06 52.63, 263.83 12.05 M170.41 125.61 C196.55 93.3, 224.93 59.17, 266.2 15.42 M170.41 125.61 C193.53 99.06, 215.38 74.95, 266.2 15.42 M176.06 125.22 C201.2 93.58, 230.9 62.92, 267.25 20.31 M176.06 125.22 C199.51 97.92, 225.31 69.43, 267.25 20.31 M181.04 125.58 C204.56 95.82, 231.43 69.18, 268.96 24.45 M181.04 125.58 C213.19 88.11, 246.51 49.83, 268.96 24.45 M186.69 125.18 C211.98 95.45, 237.16 65.58, 269.35 30.09 M186.69 125.18 C206.67 100.99, 226.79 77.89, 269.35 30.09 M191.67 125.54 C220.45 93.86, 245.41 63.37, 269.09 36.49 M191.67 125.54 C213.54 100.61, 233.56 76.86, 269.09 36.49 M197.32 125.15 C224.68 92.76, 252.03 61.17, 268.83 42.89 M197.32 125.15 C211.55 107.57, 227.71 91.13, 268.83 42.89 M202.3 125.51 C222.22 103.28, 246.35 77.11, 269.22 48.53 M202.3 125.51 C224.67 99.55, 247.44 73.3, 269.22 48.53 M207.95 125.11 C222.75 106.05, 238 92.81, 268.96 54.93 M207.95 125.11 C226.7 102, 248.01 78.92, 268.96 54.93 M212.93 125.47 C230.68 105.22, 247.39 84.7, 269.35 60.57 M212.93 125.47 C233 101.47, 256.16 77.03, 269.35 60.57 M218.58 125.08 C235.94 106.7, 249.15 90.36, 269.09 66.97 M218.58 125.08 C236.71 104.4, 254.01 84.65, 269.09 66.97 M223.56 125.44 C238.82 104.34, 255.81 87.55, 269.49 72.61 M223.56 125.44 C234.66 112.3, 245.47 99.97, 269.49 72.61 M229.21 125.05 C238.73 111.21, 250.59 101.36, 269.23 79.01 M229.21 125.05 C240.55 113.19, 250.52 99.16, 269.23 79.01 M234.19 125.41 C248.34 110.71, 263.05 93.68, 269.62 84.65 M234.19 125.41 C244.17 113.35, 256.53 100.13, 269.62 84.65 M239.84 125.01 C250.16 113.32, 262.5 100.1, 269.36 91.05 M239.84 125.01 C247.75 116.63, 256.13 106.83, 269.36 91.05 M245.48 124.62 C253.44 114.4, 262.65 104.71, 269.1 97.45 M245.48 124.62 C251.56 116.69, 257.88 110.02, 269.1 97.45 M251.78 123.47 C256.83 117.23, 261.05 113.87, 266.87 106.11 M251.78 123.47 C257 119.02, 262.02 112.54, 266.87 106.11" stroke="#a5d8ff" stroke-width="0.5" fill="none"></path><path d="M31.25 0 C79.15 1.38, 125.4 -1.33, 237.75 0 M31.25 0 C79.28 -0.71, 127.35 -1.4, 237.75 0 M237.75 0 C259.57 -1.31, 270.94 10.99, 269 31.25 M237.75 0 C260.26 1.64, 271.29 8.7, 269 31.25 M269 31.25 C267.25 56.27, 269.91 79.48, 269 93.75 M269 31.25 C269.28 48.96, 269.26 67.73, 269 93.75 M269 93.75 C270.33 112.58, 257.02 123.53, 237.75 125 M269 93.75 C270.06 116.82, 258.7 126.19, 237.75 125 M237.75 125 C174.97 126.8, 112.45 125.37, 31.25 125 M237.75 125 C176.52 123.06, 116.17 123.55, 31.25 125 M31.25 125 C11.93 125.73, -1.86 113.85, 0 93.75 M31.25 125 C11.5 123.6, -0.23 116.69, 0 93.75 M0 93.75 C1.29 79.57, -1.16 63.55, 0 31.25 M0 93.75 C0.84 76.64, -0.49 60.69, 0 31.25 M0 31.25 C-1.43 9.33, 10.19 -1.46, 31.25 0 M0 31.25 C1.3 10.59, 11.38 -1.89, 31.25 0" stroke="#1e1e1e" stroke-width="1" fill="none"></path></g><g stroke-linecap="round" transform="translate(320.5 651.3222966377158) rotate(0 179 62.5)"><path d="M7.66 7.99 C7.66 7.99, 7.66 7.99, 7.66 7.99 M7.66 7.99 C7.66 7.99, 7.66 7.99, 7.66 7.99 M0.84 21.93 C7.97 16.99, 11.67 8.64, 17.9 2.31 M0.84 21.93 C7.73 15.49, 13.2 8.27, 17.9 2.31 M1.23 27.57 C8.69 20.25, 14 15.79, 24.2 1.16 M1.23 27.57 C8.11 18.85, 16.62 9.7, 24.2 1.16 M0.97 33.97 C5.84 29.02, 12.07 20.36, 29.84 0.76 M0.97 33.97 C11.69 21.85, 21.7 8.65, 29.84 0.76 M1.37 39.61 C12.71 26.31, 23.02 16.84, 35.48 0.37 M1.37 39.61 C13.87 25.87, 26.67 11.12, 35.48 0.37 M1.11 46.01 C12.21 28.9, 24.94 16.07, 41.13 -0.03 M1.11 46.01 C14.15 32.56, 26.25 18.61, 41.13 -0.03 M1.5 51.66 C14.54 38.19, 25.64 26.18, 46.11 0.33 M1.5 51.66 C17.04 31.92, 34 13.95, 46.11 0.33 M1.24 58.05 C16.67 38.18, 35.85 19.94, 51.76 -0.06 M1.24 58.05 C14.06 42.57, 26.49 27.56, 51.76 -0.06 M0.98 64.45 C16.13 47.72, 31.36 28.05, 56.74 0.3 M0.98 64.45 C14.15 50.07, 27.73 35.17, 56.74 0.3 M1.37 70.09 C17.75 51.75, 32.41 35, 61.73 0.66 M1.37 70.09 C14.76 55.47, 28.34 39.95, 61.73 0.66 M1.11 76.49 C24.43 50.4, 49.19 24.64, 67.37 0.27 M1.11 76.49 C22.84 51.36, 45.64 26.03, 67.37 0.27 M1.51 82.13 C24.43 54.12, 49.42 30.62, 72.36 0.63 M1.51 82.13 C20.99 59.77, 41.83 35.43, 72.36 0.63 M1.24 88.53 C24.01 60.92, 47.06 38.29, 78 0.23 M1.24 88.53 C30.01 57.52, 57.75 25.05, 78 0.23 M0.98 94.93 C18.8 74.16, 36.34 52.83, 82.99 0.59 M0.98 94.93 C20.48 72.68, 40.5 49.07, 82.99 0.59 M0.72 101.33 C29.43 72.55, 53.9 42.81, 88.63 0.2 M0.72 101.33 C27.51 70.03, 55.52 38.16, 88.63 0.2 M2.43 105.46 C36.81 63.14, 75.31 22.33, 93.62 0.56 M2.43 105.46 C34.7 67.68, 67.22 31.26, 93.62 0.56 M3.48 110.35 C39.04 65.87, 78.63 24.91, 99.26 0.16 M3.48 110.35 C24.88 85.77, 49.11 58.59, 99.26 0.16 M5.84 113.73 C36.75 79.01, 65.07 44.54, 104.25 0.52 M5.84 113.73 C26.3 90.06, 46.47 66.75, 104.25 0.52 M8.2 117.11 C46.44 74, 86.66 29.42, 109.89 0.13 M8.2 117.11 C41.01 77.42, 74.3 39.01, 109.89 0.13 M11.22 119.73 C33.18 93.45, 57.76 67.13, 114.88 0.49 M11.22 119.73 C37.71 90.02, 64.19 61.21, 114.88 0.49 M14.9 121.6 C46.32 87.06, 74.07 49.93, 120.52 0.09 M14.9 121.6 C38.02 92.73, 62.88 66, 120.52 0.09 M18.57 123.47 C45.09 92.69, 67.83 64.51, 125.51 0.45 M18.57 123.47 C45.11 92.34, 71.83 61.1, 125.51 0.45 M23.56 123.83 C62.96 81.84, 102.14 35.6, 131.15 0.06 M23.56 123.83 C57.66 84.78, 90.47 46.79, 131.15 0.06 M27.89 124.95 C49.67 98.82, 71.27 70.75, 136.14 0.42 M27.89 124.95 C55.01 91.24, 85.31 57.95, 136.14 0.42 M32.88 125.31 C56.66 98.87, 81.43 71.43, 141.78 0.02 M32.88 125.31 C54.72 101.04, 76.17 75.58, 141.78 0.02 M38.52 124.91 C66.88 93.79, 92.45 62.9, 146.77 0.38 M38.52 124.91 C64.85 94.41, 90.58 65.28, 146.77 0.38 M43.51 125.27 C74.86 87.63, 111.74 48.33, 152.41 -0.01 M43.51 125.27 C72.11 93.29, 100.98 60.01, 152.41 -0.01 M48.5 125.63 C76.98 96.86, 103.41 63.06, 157.4 0.35 M48.5 125.63 C71.69 100.94, 93.71 75.99, 157.4 0.35 M54.14 125.24 C83.23 90.29, 117.59 56.33, 163.04 -0.04 M54.14 125.24 C88.5 84.44, 123.41 43.26, 163.04 -0.04 M59.13 125.6 C93.75 84.57, 127.3 45.78, 168.03 0.32 M59.13 125.6 C92.83 88.99, 124.45 51.12, 168.03 0.32 M64.77 125.2 C110.01 73.63, 151.61 26.61, 173.67 -0.08 M64.77 125.2 C99.18 84.71, 134.38 46.57, 173.67 -0.08 M69.76 125.56 C106.16 81.99, 141.87 41.83, 178.66 0.28 M69.76 125.56 C107.69 81.27, 145.77 38.14, 178.66 0.28 M75.4 125.17 C108.28 85.96, 142.41 46.53, 183.65 0.64 M75.4 125.17 C104.44 92.32, 131.85 59.61, 183.65 0.64 M80.39 125.53 C106.51 96.57, 132.74 63.73, 189.29 0.25 M80.39 125.53 C111.87 91.92, 140.91 56.35, 189.29 0.25 M86.03 125.13 C118.47 88.15, 148.6 51.33, 194.28 0.61 M86.03 125.13 C117.77 89.47, 147.72 55.72, 194.28 0.61 M91.02 125.49 C129.09 78.7, 171.71 36.08, 199.92 0.21 M91.02 125.49 C122.96 88.19, 155.05 51.39, 199.92 0.21 M96.66 125.1 C123.21 97.96, 143.5 71.16, 204.91 0.57 M96.66 125.1 C138.06 76.2, 179.13 30, 204.91 0.57 M101.65 125.46 C123.91 98.66, 147.91 70.8, 210.55 0.18 M101.65 125.46 C134.68 83.96, 170.16 45.88, 210.55 0.18 M107.29 125.06 C146.61 81.67, 186.16 33.79, 215.54 0.54 M107.29 125.06 C136.19 90.52, 166.29 55.44, 215.54 0.54 M112.28 125.42 C145.81 82.52, 180.84 41.54, 221.18 0.14 M112.28 125.42 C150.94 83.31, 186.63 40.9, 221.18 0.14 M117.92 125.03 C141.54 94.62, 166.46 66.91, 226.17 0.5 M117.92 125.03 C157.66 80, 197.12 34.18, 226.17 0.5 M122.91 125.39 C148.57 95.12, 176.77 65.2, 231.81 0.11 M122.91 125.39 C150.55 91.33, 180.14 59.87, 231.81 0.11 M128.55 125 C157.51 87.23, 191.83 51.98, 236.8 0.47 M128.55 125 C164.99 84.22, 200.11 44.35, 236.8 0.47 M133.54 125.36 C166.5 83.94, 202.27 44.35, 242.44 0.07 M133.54 125.36 C164.32 90.63, 192.41 56.87, 242.44 0.07 M139.18 124.96 C166.27 92.49, 194.06 59.86, 247.43 0.43 M139.18 124.96 C176.64 81.22, 217.14 37.01, 247.43 0.43 M144.17 125.32 C176.45 89.48, 209.77 48.93, 253.07 0.04 M144.17 125.32 C172.18 94.23, 198.88 62.83, 253.07 0.04 M149.81 124.93 C175.3 95.04, 200.61 66.48, 258.06 0.4 M149.81 124.93 C188.38 83.09, 224.26 41.43, 258.06 0.4 M154.8 125.29 C191.2 82.85, 227.92 40.6, 263.7 0.01 M154.8 125.29 C197.04 77.95, 237.98 28.63, 263.7 0.01 M159.78 125.65 C195.5 85.1, 231.26 44.36, 268.69 0.37 M159.78 125.65 C186.14 94.9, 211.98 66.01, 268.69 0.37 M165.43 125.25 C187.37 99.09, 210.28 74.28, 274.33 -0.03 M165.43 125.25 C202.15 83.45, 237.36 40.44, 274.33 -0.03 M170.41 125.61 C198.13 94.72, 226.83 61.6, 279.32 0.33 M170.41 125.61 C205.18 83.44, 243.5 42.75, 279.32 0.33 M176.06 125.22 C205.8 90.79, 236.7 54.51, 284.96 -0.06 M176.06 125.22 C204.52 90.31, 234.2 56.47, 284.96 -0.06 M181.04 125.58 C221.14 81.8, 257.32 35.75, 289.95 0.3 M181.04 125.58 C223.3 76.2, 266.11 29.04, 289.95 0.3 M186.69 125.18 C223.16 83.43, 257.95 41.34, 294.94 0.66 M186.69 125.18 C211.93 93.67, 240.68 62.01, 294.94 0.66 M191.67 125.54 C227.03 83.91, 264.44 38.57, 300.58 0.26 M191.67 125.54 C218.41 94.86, 245.19 64.94, 300.58 0.26 M197.32 125.15 C234.42 82.49, 270.19 44.23, 305.57 0.62 M197.32 125.15 C220.55 97.51, 244.34 69.9, 305.57 0.62 M202.3 125.51 C242.76 80.15, 278.62 36.45, 311.21 0.23 M202.3 125.51 C228.7 94.79, 256.16 62.4, 311.21 0.23 M207.95 125.11 C239.32 86.55, 270.49 53.66, 316.2 0.59 M207.95 125.11 C234.71 94.43, 260.54 64.51, 316.2 0.59 M212.93 125.47 C251.36 79.41, 289.25 37.87, 321.84 0.19 M212.93 125.47 C241.69 92.91, 270.67 60.27, 321.84 0.19 M218.58 125.08 C260.84 77.03, 301.6 25.07, 326.83 0.55 M218.58 125.08 C244.4 96.33, 270.96 66.51, 326.83 0.55 M223.56 125.44 C251.12 94.78, 281.49 58.88, 331.81 0.91 M223.56 125.44 C246.47 98.63, 269.96 72.36, 331.81 0.91 M229.21 125.05 C253.71 95.38, 281.63 64.03, 336.8 1.27 M229.21 125.05 C256.58 93.37, 282.24 63.38, 336.8 1.27 M234.19 125.41 C260.15 94.78, 286.97 64.93, 341.13 2.39 M234.19 125.41 C268.02 86.74, 303.11 45.13, 341.13 2.39 M239.84 125.01 C267.43 94.59, 294.51 63.49, 344.81 4.26 M239.84 125.01 C260.67 99.25, 281.97 75.34, 344.81 4.26 M244.82 125.37 C271.01 93.13, 301.98 59.76, 347.82 6.88 M244.82 125.37 C280.38 87.46, 314.87 48.18, 347.82 6.88 M250.47 124.98 C275.11 95.37, 300.2 69.29, 351.5 8.75 M250.47 124.98 C285.14 87.62, 315.95 50.74, 351.5 8.75 M255.45 125.34 C286.37 90.2, 314.39 56.04, 353.21 12.88 M255.45 125.34 C280.5 98.35, 304.7 69.56, 353.21 12.88 M261.1 124.94 C280.62 103.02, 303.26 78.72, 355.57 16.26 M261.1 124.94 C292.47 89.41, 322.75 54.47, 355.57 16.26 M266.08 125.3 C294.35 91.32, 326.25 54.54, 357.28 20.4 M266.08 125.3 C301.1 85.93, 336.74 45.32, 357.28 20.4 M271.73 124.91 C291.92 102.43, 308.97 79.92, 357.67 26.04 M271.73 124.91 C289.55 105.09, 306.78 84.46, 357.67 26.04 M276.71 125.27 C302.62 95.44, 327.86 64.9, 358.07 31.68 M276.71 125.27 C303.98 93.69, 331.58 61.46, 358.07 31.68 M281.7 125.63 C301.91 101.85, 322.99 77.07, 357.8 38.08 M281.7 125.63 C303.43 102.89, 323.88 77.66, 357.8 38.08 M287.34 125.23 C304.91 107.18, 322.52 87, 358.2 43.72 M287.34 125.23 C304.23 108.07, 320.43 87.85, 358.2 43.72 M292.33 125.59 C304.81 109.56, 322 90.8, 357.94 50.12 M292.33 125.59 C313.85 100.16, 335.14 76.41, 357.94 50.12 M297.97 125.2 C316.42 102.52, 335.49 81.75, 358.33 55.77 M297.97 125.2 C312.34 110.02, 325.24 93.32, 358.33 55.77 M302.96 125.56 C320.59 106.52, 337.54 84.92, 358.07 62.16 M302.96 125.56 C318.09 109.27, 330.6 92.63, 358.07 62.16 M308.6 125.16 C325.3 106.42, 340.97 87.22, 358.46 67.81 M308.6 125.16 C320.72 110.21, 332.29 97.6, 358.46 67.81 M313.59 125.52 C331.81 104.25, 347.71 86.11, 358.2 74.2 M313.59 125.52 C323.42 112.69, 335.89 100.12, 358.2 74.2 M319.23 125.13 C329.71 111.36, 343.74 97.97, 358.6 79.85 M319.23 125.13 C327.91 115.01, 338.43 104.38, 358.6 79.85 M324.22 125.49 C334.39 112.44, 346.38 99.78, 358.34 86.24 M324.22 125.49 C337.52 111.74, 349.73 96.53, 358.34 86.24 M329.86 125.1 C334.96 118.85, 343.55 109.81, 358.07 92.64 M329.86 125.1 C337.25 115.66, 346.65 106.37, 358.07 92.64 M336.16 123.95 C344.2 114.63, 353.84 104.57, 357.16 99.8 M336.16 123.95 C343.64 114.19, 352.89 105.22, 357.16 99.8 M343.12 122.04 C347.46 115.24, 351.39 112.86, 356.24 106.95 M343.12 122.04 C348.21 116.21, 351.86 110.27, 356.24 106.95" stroke="#b2f2bb" stroke-width="0.5" fill="none"></path><path d="M31.25 0 C141.3 -1.16, 250.72 0.36, 326.75 0 M31.25 0 C96.35 1.36, 161.5 1.06, 326.75 0 M326.75 0 C346.85 1.67, 356.21 8.47, 358 31.25 M326.75 0 C347.61 -0.05, 358.36 8.96, 358 31.25 M358 31.25 C360.08 53.91, 360.01 75.55, 358 93.75 M358 31.25 C356.97 52.95, 356.95 77.16, 358 93.75 M358 93.75 C356.79 113.69, 347.08 126.82, 326.75 125 M358 93.75 C358.49 116.32, 345.56 122.85, 326.75 125 M326.75 125 C262.36 126.05, 195.16 123.72, 31.25 125 M326.75 125 C238.66 125.13, 149.81 124.74, 31.25 125 M31.25 125 C9.79 126.93, -0.32 114.16, 0 93.75 M31.25 125 C10.72 125.99, 1.2 114.66, 0 93.75 M0 93.75 C-0.78 69.77, 1.27 47.11, 0 31.25 M0 93.75 C0.51 72.26, 0.36 52.77, 0 31.25 M0 31.25 C-0.12 11.71, 9.27 1.86, 31.25 0 M0 31.25 C1.81 9.48, 12.14 -0.44, 31.25 0" stroke="#1e1e1e" stroke-width="1" fill="none"></path></g><g stroke-linecap="round" transform="translate(455 809.3222966377158) rotate(0 179 62.5)"><path d="M7.66 7.99 C7.66 7.99, 7.66 7.99, 7.66 7.99 M7.66 7.99 C7.66 7.99, 7.66 7.99, 7.66 7.99 M0.84 21.93 C7.49 17.93, 11.37 8.7, 17.9 2.31 M0.84 21.93 C5.78 16, 10.28 10.36, 17.9 2.31 M1.23 27.57 C8.6 21.12, 12.02 14.42, 24.2 1.16 M1.23 27.57 C6.91 21.5, 12.23 15.51, 24.2 1.16 M0.97 33.97 C7.47 26.76, 12.61 20.39, 29.84 0.76 M0.97 33.97 C8.74 25.21, 17.28 15.24, 29.84 0.76 M1.37 39.61 C9.19 29.21, 19.95 19.16, 35.48 0.37 M1.37 39.61 C11.8 27.47, 23.93 13.37, 35.48 0.37 M1.11 46.01 C19.02 29.82, 33.04 10.27, 41.13 -0.03 M1.11 46.01 C13.37 31.34, 25.75 15.75, 41.13 -0.03 M1.5 51.66 C11.21 40.45, 20.39 29.61, 46.11 0.33 M1.5 51.66 C13.04 39.69, 23.83 26.89, 46.11 0.33 M1.24 58.05 C12.63 41.67, 25.52 26.28, 51.76 -0.06 M1.24 58.05 C12.62 45.32, 24.04 31.74, 51.76 -0.06 M0.98 64.45 C14.61 50.03, 30.21 32.08, 56.74 0.3 M0.98 64.45 C21.14 40.63, 39.91 18.27, 56.74 0.3 M1.37 70.09 C21.51 45.23, 46.08 18.16, 61.73 0.66 M1.37 70.09 C12.05 55.44, 24.16 41.51, 61.73 0.66 M1.11 76.49 C21.27 51.62, 41.56 31.02, 67.37 0.27 M1.11 76.49 C23.58 52.65, 43.79 27.65, 67.37 0.27 M1.51 82.13 C14.97 64.61, 29.92 45.13, 72.36 0.63 M1.51 82.13 C23.06 56.52, 43.77 32.03, 72.36 0.63 M1.24 88.53 C29.69 56.82, 58.62 21.48, 78 0.23 M1.24 88.53 C25.38 61.67, 49.12 32.55, 78 0.23 M0.98 94.93 C29.74 62.34, 57.1 30.18, 82.99 0.59 M0.98 94.93 C26.16 65.43, 51.38 35.97, 82.99 0.59 M0.72 101.33 C19.28 77.77, 40.38 55.87, 88.63 0.2 M0.72 101.33 C35 63.71, 68.75 23.19, 88.63 0.2 M2.43 105.46 C27.77 78.17, 50.73 50.23, 93.62 0.56 M2.43 105.46 C27.19 78.55, 49.01 50.87, 93.62 0.56 M3.48 110.35 C28.31 82.74, 53.5 54.58, 99.26 0.16 M3.48 110.35 C33.05 78.99, 62.58 45.44, 99.26 0.16 M5.84 113.73 C38.03 75.97, 68.49 41.18, 104.25 0.52 M5.84 113.73 C33.61 79.92, 62.9 45.49, 104.25 0.52 M8.2 117.11 C33.38 88.38, 56.16 64.24, 109.89 0.13 M8.2 117.11 C37.12 81.78, 68.48 47.46, 109.89 0.13 M11.22 119.73 C37.1 89.27, 67.54 56.62, 114.88 0.49 M11.22 119.73 C39.45 85.41, 69.86 52.56, 114.88 0.49 M14.9 121.6 C52.96 77.23, 93.51 30.69, 120.52 0.09 M14.9 121.6 C48.16 83.99, 80.75 46.04, 120.52 0.09 M18.57 123.47 C44.2 91.62, 70.1 61.91, 125.51 0.45 M18.57 123.47 C56.89 80.46, 93.04 37.98, 125.51 0.45 M23.56 123.83 C54.33 89.03, 81.63 56.13, 131.15 0.06 M23.56 123.83 C64.22 75.43, 105.43 27.96, 131.15 0.06 M27.89 124.95 C49.05 98.27, 74.08 73.76, 136.14 0.42 M27.89 124.95 C61.62 87.06, 97.38 46.72, 136.14 0.42 M32.88 125.31 C69.4 82.96, 106.61 40.05, 141.78 0.02 M32.88 125.31 C59.21 93.58, 85.5 65.49, 141.78 0.02 M38.52 124.91 C71.64 83.81, 109.82 42.76, 146.77 0.38 M38.52 124.91 C72.91 85.74, 106.73 46.19, 146.77 0.38 M43.51 125.27 C82.18 78.97, 126.99 31.82, 152.41 -0.01 M43.51 125.27 C77.67 87.87, 109.09 51.15, 152.41 -0.01 M48.5 125.63 C87.49 81.11, 124.85 38.43, 157.4 0.35 M48.5 125.63 C87.5 79.16, 127.7 34.29, 157.4 0.35 M54.14 125.24 C80.27 94.29, 105.84 65.1, 163.04 -0.04 M54.14 125.24 C82.64 91.04, 112.9 58.12, 163.04 -0.04 M59.13 125.6 C89.4 92.68, 117.24 55.53, 168.03 0.32 M59.13 125.6 C101.22 78.5, 143.28 30.06, 168.03 0.32 M64.77 125.2 C96.47 87.69, 133.06 47.57, 173.67 -0.08 M64.77 125.2 C104.78 79.28, 146.51 31.77, 173.67 -0.08 M69.76 125.56 C98.55 93.03, 128.61 58.13, 178.66 0.28 M69.76 125.56 C107.76 81.05, 147.19 36.14, 178.66 0.28 M75.4 125.17 C102.66 90.78, 131.04 59.34, 183.65 0.64 M75.4 125.17 C108.38 86.41, 141.79 48.71, 183.65 0.64 M80.39 125.53 C116.19 88.51, 151.33 46.68, 189.29 0.25 M80.39 125.53 C103.17 100.6, 123.69 75.25, 189.29 0.25 M86.03 125.13 C120.42 85.57, 154.36 46.46, 194.28 0.61 M86.03 125.13 C114.59 91.7, 143.9 58.46, 194.28 0.61 M91.02 125.49 C115.15 97.1, 140.27 69.51, 199.92 0.21 M91.02 125.49 C123.75 87.21, 157.11 50.5, 199.92 0.21 M96.66 125.1 C131.77 85.43, 162.73 48.11, 204.91 0.57 M96.66 125.1 C133.78 82.54, 170.9 38.79, 204.91 0.57 M101.65 125.46 C141.51 77.92, 185.53 28.17, 210.55 0.18 M101.65 125.46 C140.37 81.49, 179.39 38.05, 210.55 0.18 M107.29 125.06 C141.42 84.03, 173.12 45.89, 215.54 0.54 M107.29 125.06 C141.89 86.25, 175.5 47.25, 215.54 0.54 M112.28 125.42 C154.08 79.08, 199.57 28.61, 221.18 0.14 M112.28 125.42 C148.39 85.17, 182.97 44.38, 221.18 0.14 M117.92 125.03 C156.99 78.32, 198.06 31.85, 226.17 0.5 M117.92 125.03 C146.62 91.3, 173.99 60, 226.17 0.5 M122.91 125.39 C150.13 93.49, 181.48 58.69, 231.81 0.11 M122.91 125.39 C153.83 88.16, 185.18 50.37, 231.81 0.11 M128.55 125 C168.32 81.43, 207.33 34.41, 236.8 0.47 M128.55 125 C167.34 80.94, 204.45 36.26, 236.8 0.47 M133.54 125.36 C157.62 96.99, 183.53 67.37, 242.44 0.07 M133.54 125.36 C158.67 95.94, 185.71 65.84, 242.44 0.07 M139.18 124.96 C178.79 78.71, 218.57 36.47, 247.43 0.43 M139.18 124.96 C167.55 90.87, 196.34 58.76, 247.43 0.43 M144.17 125.32 C179.07 85.38, 211.47 47.85, 253.07 0.04 M144.17 125.32 C164.55 100, 188.11 74.81, 253.07 0.04 M149.81 124.93 C173 96.01, 197.68 69.59, 258.06 0.4 M149.81 124.93 C184.39 83, 221.8 40.05, 258.06 0.4 M154.8 125.29 C191.13 84.63, 228.04 43.77, 263.7 0.01 M154.8 125.29 C193.31 79.99, 230.4 35.76, 263.7 0.01 M159.78 125.65 C188.73 95.07, 215.89 62.42, 268.69 0.37 M159.78 125.65 C185.98 97.5, 209.69 66.71, 268.69 0.37 M165.43 125.25 C200.11 85.46, 236.13 41.66, 274.33 -0.03 M165.43 125.25 C203.15 83.43, 239.76 40.45, 274.33 -0.03 M170.41 125.61 C204.87 82.77, 242.46 42.32, 279.32 0.33 M170.41 125.61 C203.63 88.12, 236.71 51, 279.32 0.33 M176.06 125.22 C216.19 81.51, 251.19 38.2, 284.96 -0.06 M176.06 125.22 C209.02 87.39, 241.91 48.33, 284.96 -0.06 M181.04 125.58 C217.1 81.67, 256.45 39.1, 289.95 0.3 M181.04 125.58 C222.18 79.94, 262.72 33.08, 289.95 0.3 M186.69 125.18 C214.52 96.73, 240.34 64.85, 294.94 0.66 M186.69 125.18 C215.62 91.05, 246.59 56.48, 294.94 0.66 M191.67 125.54 C214.97 96.27, 239.37 71.94, 300.58 0.26 M191.67 125.54 C234.14 75.33, 277.18 26.94, 300.58 0.26 M197.32 125.15 C226.15 94.25, 251.33 60.81, 305.57 0.62 M197.32 125.15 C241.76 76.9, 284.31 27.02, 305.57 0.62 M202.3 125.51 C226.48 96.99, 251.39 67.02, 311.21 0.23 M202.3 125.51 C243.72 79.55, 283.49 33.73, 311.21 0.23 M207.95 125.11 C236.48 94.76, 262.94 60.66, 316.2 0.59 M207.95 125.11 C237.93 89.21, 267.9 53.53, 316.2 0.59 M212.93 125.47 C248.95 85.08, 283.14 42.67, 321.84 0.19 M212.93 125.47 C239.01 94.38, 265.37 64.39, 321.84 0.19 M218.58 125.08 C253.2 85.03, 286.81 47.16, 326.83 0.55 M218.58 125.08 C245.36 93.89, 272.2 62.61, 326.83 0.55 M223.56 125.44 C248.68 98.63, 268.95 70.53, 331.81 0.91 M223.56 125.44 C249.45 97.6, 273.7 69.25, 331.81 0.91 M229.21 125.05 C264.53 88.26, 293.89 47.81, 336.8 1.27 M229.21 125.05 C263.41 86.82, 296.85 47.21, 336.8 1.27 M234.19 125.41 C256.31 97.51, 281.71 71.89, 341.13 2.39 M234.19 125.41 C257.28 98.89, 281.01 72.71, 341.13 2.39 M239.84 125.01 C273.49 86.6, 304.1 51.62, 344.81 4.26 M239.84 125.01 C281.46 77.72, 321.55 29.89, 344.81 4.26 M244.82 125.37 C273.56 89.77, 301.67 58.45, 347.82 6.88 M244.82 125.37 C267.94 98.7, 290.7 72.77, 347.82 6.88 M250.47 124.98 C268.3 100.45, 290.9 80.45, 351.5 8.75 M250.47 124.98 C276.88 93.62, 304.48 63.44, 351.5 8.75 M255.45 125.34 C287.31 90.1, 319.84 50.74, 353.21 12.88 M255.45 125.34 C288.1 88.51, 321.15 49.29, 353.21 12.88 M261.1 124.94 C289.55 95.64, 316.73 62.87, 355.57 16.26 M261.1 124.94 C282.63 100.43, 304.39 76.85, 355.57 16.26 M266.08 125.3 C297.12 91.41, 325.3 53.9, 357.28 20.4 M266.08 125.3 C299.71 89.17, 331.16 51.01, 357.28 20.4 M271.73 124.91 C294.27 100.26, 317.27 73.84, 357.67 26.04 M271.73 124.91 C294.54 98.48, 317.81 71.65, 357.67 26.04 M276.71 125.27 C293.34 106.06, 311.81 86.38, 358.07 31.68 M276.71 125.27 C303.95 91.71, 334.26 58.86, 358.07 31.68 M281.7 125.63 C299.65 102.34, 317.33 81.1, 357.8 38.08 M281.7 125.63 C302.9 102.42, 325.05 77.66, 357.8 38.08 M287.34 125.23 C312.05 96, 335.71 66.37, 358.2 43.72 M287.34 125.23 C309.78 98.6, 333.33 72.93, 358.2 43.72 M292.33 125.59 C312.31 102.72, 335.79 77.07, 357.94 50.12 M292.33 125.59 C306.75 108.78, 321.95 92.16, 357.94 50.12 M297.97 125.2 C315.13 106.49, 335.49 84.66, 358.33 55.77 M297.97 125.2 C317.97 103.41, 337.11 81.46, 358.33 55.77 M302.96 125.56 C316.92 111.74, 327.14 94.08, 358.07 62.16 M302.96 125.56 C322.79 100.73, 343.39 77.08, 358.07 62.16 M308.6 125.16 C318.92 113.25, 332.41 98.87, 358.46 67.81 M308.6 125.16 C324.03 107.95, 338.54 88.75, 358.46 67.81 M313.59 125.52 C324.83 111.1, 339.24 95.32, 358.2 74.2 M313.59 125.52 C325.49 111.66, 339.13 95.95, 358.2 74.2 M319.23 125.13 C332.29 110.86, 345.29 93.54, 358.6 79.85 M319.23 125.13 C333.52 107.81, 347.78 92.94, 358.6 79.85 M324.22 125.49 C332.17 115.57, 338.88 108.01, 358.34 86.24 M324.22 125.49 C332.28 117.39, 339.91 108.33, 358.34 86.24 M329.86 125.1 C339.65 110.97, 353.4 100.18, 358.07 92.64 M329.86 125.1 C336.74 116.95, 342.3 111.69, 358.07 92.64 M336.16 123.95 C342.47 116.22, 352.86 103.33, 357.16 99.8 M336.16 123.95 C341.95 117.27, 349.8 109.5, 357.16 99.8 M343.12 122.04 C349.42 117.48, 351.94 108.91, 356.24 106.95 M343.12 122.04 C346.54 116.96, 352.1 110.96, 356.24 106.95" stroke="#b2f2bb" stroke-width="0.5" fill="none"></path><path d="M31.25 0 C98.18 2.06, 164.57 1.83, 326.75 0 M31.25 0 C141.63 -1.38, 250.38 -1.01, 326.75 0 M326.75 0 C349.06 -0.32, 359.17 11.22, 358 31.25 M326.75 0 C349.29 1.69, 357.46 8.61, 358 31.25 M358 31.25 C358.18 46.06, 356.35 59.91, 358 93.75 M358 31.25 C358.11 46.43, 357.7 60.77, 358 93.75 M358 93.75 C356.25 113.32, 345.87 124.37, 326.75 125 M358 93.75 C356.23 115.14, 347.2 125.74, 326.75 125 M326.75 125 C238.6 123.91, 152.04 124.13, 31.25 125 M326.75 125 C210.12 123.98, 94.99 123.29, 31.25 125 M31.25 125 C11.58 123.87, -1.57 115.03, 0 93.75 M31.25 125 C10.75 125.42, 1.92 115.5, 0 93.75 M0 93.75 C0.39 70.45, 0.23 49.24, 0 31.25 M0 93.75 C-0.87 71.11, -0.71 49.82, 0 31.25 M0 31.25 C-1.57 10.9, 10.21 -0.94, 31.25 0 M0 31.25 C-0.14 8.18, 12.62 1.12, 31.25 0" stroke="#1e1e1e" stroke-width="1" fill="none"></path></g><g stroke-linecap="round"><g transform="translate(147 14.822296637715795) rotate(0 0 473.5)"><path d="M0.33 0.12 C0.58 157.78, 0.7 789.24, 0.51 947.08 M-0.95 -0.86 C-0.73 157.53, -0.61 790.42, -0.17 948.66" stroke="#e03131" stroke-width="1" fill="none"></path></g></g><mask></mask><g stroke-linecap="round"><g transform="translate(681.1743477791167 10.822296637715795) rotate(0 0 481.0493103275681)"><path d="M-0.46 0.15 C-0.47 160.18, 0.49 800.87, 0.37 961.28 M1.5 -0.82 C1.32 159.86, -0.32 802.16, -0.38 962.39" stroke="#e03131" stroke-width="1" fill="none"></path></g></g><mask></mask></svg>