<svg version="1.1" xmlns="http://www.w3.org/2000/svg" viewBox="0 0 838 969.0895353794098" width="838" height="969.0895353794098" class="excalidraw-svg">
  <!-- svg-source:excalidraw -->
  
  <defs>
    <style class="style-fonts">
      @font-face {
        font-family: "Virgil";
        src: url("https://excalidraw.com/Virgil.woff2");
      }
      @font-face {
        font-family: "Cascadia";
        src: url("https://excalidraw.com/Cascadia.woff2");
      }
      @font-face {
        font-family: "Assistant";
        src: url("https://excalidraw.com/Assistant-Regular.woff2");
      }
    </style>
    
  </defs>
  <rect x="0" y="0" width="838" height="969.0895353794098" fill="#ffffff"/><g stroke-linecap="round" transform="translate(10 55.10227603465319) rotate(0 409 63)"><path d="M31.5 0 C284.5 2.24, 536.49 2.46, 786.5 0 M31.5 0 C219.14 0.13, 407.29 -0.18, 786.5 0 M786.5 0 C807.19 -1.84, 818.06 12.15, 818 31.5 M786.5 0 C805.96 -0.87, 815.83 11.01, 818 31.5 M818 31.5 C816.9 48.08, 818.63 61.55, 818 94.5 M818 31.5 C818.94 47.93, 818.39 62.01, 818 94.5 M818 94.5 C819.49 114.27, 808.26 126.94, 786.5 126 M818 94.5 C816.8 117.48, 808.63 128.24, 786.5 126 M786.5 126 C547.13 125.91, 307.66 125.3, 31.5 126 M786.5 126 C505.99 124.85, 224.69 125.14, 31.5 126 M31.5 126 C9.03 125.61, -0.03 115.24, 0 94.5 M31.5 126 C12.19 126.51, 0.53 115.07, 0 94.5 M0 94.5 C0.11 70.89, -0.01 44.95, 0 31.5 M0 94.5 C-1.5 79.47, -1.42 64.98, 0 31.5 M0 31.5 C1.79 11.54, 11.67 -1.43, 31.5 0 M0 31.5 C-1.25 9.72, 9.62 0.03, 31.5 0" stroke="#1e1e1e" stroke-width="1" fill="none"/></g><g stroke-linecap="round" transform="translate(12 58.57286426994733) rotate(0 67 62.5)"><path d="M7.66 7.99 C7.66 7.99, 7.66 7.99, 7.66 7.99 M7.66 7.99 C7.66 7.99, 7.66 7.99, 7.66 7.99 M0.84 21.93 C3.63 19.44, 9.34 15.13, 17.9 2.31 M0.84 21.93 C7.79 15.14, 12.45 9.14, 17.9 2.31 M1.23 27.57 C10.31 19.73, 16.2 6.49, 24.2 1.16 M1.23 27.57 C8.86 20.07, 14.03 12.04, 24.2 1.16 M0.97 33.97 C10.61 23.47, 17.87 14.08, 29.84 0.76 M0.97 33.97 C9.81 23.45, 19.09 13.19, 29.84 0.76 M1.37 39.61 C15.42 25.88, 26.55 10.3, 35.48 0.37 M1.37 39.61 C12.45 27.62, 20.48 17.32, 35.48 0.37 M1.11 46.01 C13.02 31.1, 25.97 17.67, 41.13 -0.03 M1.11 46.01 C8.9 35.69, 17.72 27.16, 41.13 -0.03 M1.5 51.66 C18.88 35.05, 33.12 13.13, 46.11 0.33 M1.5 51.66 C13.2 39.05, 24.5 24.27, 46.11 0.33 M1.24 58.05 C14.7 45.31, 25.32 26.51, 51.1 0.7 M1.24 58.05 C18.53 37.76, 37.21 16.82, 51.1 0.7 M0.98 64.45 C16.46 48.38, 28.06 33.39, 56.74 0.3 M0.98 64.45 C21.66 40.46, 42.1 15.81, 56.74 0.3 M1.37 70.09 C21.23 46.95, 41.98 20.44, 61.73 0.66 M1.37 70.09 C15.92 53.89, 32.54 35.75, 61.73 0.66 M1.11 76.49 C24.06 48.85, 47.01 20.41, 67.37 0.27 M1.11 76.49 C17.77 56.34, 36.67 35.43, 67.37 0.27 M1.51 82.13 C27.29 53.72, 50.4 24.03, 72.36 0.63 M1.51 82.13 C28.65 50.91, 56.81 18.38, 72.36 0.63 M1.24 88.53 C21.92 63.5, 44.11 40.33, 78 0.23 M1.24 88.53 C21.85 62.91, 42.78 39.75, 78 0.23 M0.98 94.93 C24.4 71.43, 46.48 44.02, 82.99 0.59 M0.98 94.93 C18.95 75.47, 36.71 54.11, 82.99 0.59 M0.72 101.33 C31.01 68.27, 61.45 33.32, 87.98 0.95 M0.72 101.33 C20.82 79.44, 39.37 55.2, 87.98 0.95 M1.77 106.22 C30.66 73.28, 59.06 41.47, 93.62 0.56 M1.77 106.22 C28.32 78.08, 52.27 48.61, 93.62 0.56 M3.48 110.35 C34.33 74.83, 67.14 37.82, 98.61 0.92 M3.48 110.35 C26.42 85.49, 51.15 58.4, 98.61 0.92 M5.84 113.73 C37.52 76.51, 66.58 41.94, 104.25 0.52 M5.84 113.73 C43.64 72.63, 80.19 31.34, 104.25 0.52 M8.2 117.11 C49.74 71.33, 86.8 24.95, 109.24 0.88 M8.2 117.11 C42.76 77.89, 76.97 36.43, 109.24 0.88 M11.22 119.73 C37.93 89.62, 65.87 54.86, 113.57 2 M11.22 119.73 C32.91 93.11, 55.7 68.93, 113.57 2 M14.9 121.6 C44.73 87.06, 77.26 51.16, 117.9 3.11 M14.9 121.6 C40.62 92.13, 66.95 61.4, 117.9 3.11 M18.57 123.47 C42.37 96.71, 64.71 71.64, 122.23 4.23 M18.57 123.47 C43.13 96.31, 66.64 68.69, 122.23 4.23 M22.9 124.59 C47.31 95.69, 73.83 65, 125.25 6.85 M22.9 124.59 C58.92 80.62, 96.62 38.42, 125.25 6.85 M27.89 124.95 C50.06 102.02, 68.12 79.19, 127.61 10.23 M27.89 124.95 C60.98 88.3, 91.62 51.84, 127.61 10.23 M33.53 124.55 C55.92 101.87, 77.98 77.33, 129.97 13.61 M33.53 124.55 C70.95 82.1, 106.43 41.37, 129.97 13.61 M38.52 124.91 C63 97.34, 85.11 70.66, 132.34 16.99 M38.52 124.91 C63.13 96.86, 87.82 68.1, 132.34 16.99 M44.16 124.52 C59.85 103.08, 79.89 81.67, 133.39 21.88 M44.16 124.52 C70.26 96.35, 95.19 67.97, 133.39 21.88 M49.15 124.88 C68.66 103.22, 86.74 82.26, 133.78 27.52 M49.15 124.88 C80.84 88.63, 109.91 54.09, 133.78 27.52 M54.14 125.24 C86.72 88.42, 119.32 53.65, 134.18 33.16 M54.14 125.24 C84.04 90.39, 112.81 56.17, 134.18 33.16 M59.78 124.84 C85.18 93.72, 111.36 65.56, 133.92 39.56 M59.78 124.84 C89.36 92.3, 119.35 58.83, 133.92 39.56 M64.77 125.2 C81.37 106.75, 93.8 89.62, 134.31 45.2 M64.77 125.2 C79.59 108.89, 95.51 90.42, 134.31 45.2 M70.41 124.81 C87.62 104.53, 105.99 81.29, 134.05 51.6 M70.41 124.81 C84.72 107.12, 100.95 89.11, 134.05 51.6 M75.4 125.17 C88.38 109.23, 104.71 89.71, 133.79 58 M75.4 125.17 C94.02 103.58, 111.22 83.72, 133.79 58 M81.04 124.77 C100.22 106.35, 117.06 84.04, 134.18 63.64 M81.04 124.77 C95.19 107.95, 108.78 91.61, 134.18 63.64 M86.03 125.13 C102.55 107.59, 119.57 84.31, 133.92 70.04 M86.03 125.13 C95.91 114.28, 105.79 102.35, 133.92 70.04 M91.67 124.74 C105.45 110.54, 121.07 93.4, 133.66 76.44 M91.67 124.74 C106.52 107.62, 121.01 92.02, 133.66 76.44 M96.66 125.1 C109.33 110.72, 120.15 96.22, 134.05 82.08 M96.66 125.1 C111.34 109.92, 123.78 92.77, 134.05 82.08 M101.65 125.46 C114.95 112.31, 124.61 97.98, 133.79 88.48 M101.65 125.46 C108.48 116.56, 117.04 107.98, 133.79 88.48 M107.94 124.31 C117.01 110.99, 128.96 99.14, 133.53 94.88 M107.94 124.31 C117.77 113.69, 127.06 104.39, 133.53 94.88 M113.59 123.92 C119.5 115.48, 128.23 109.53, 133.93 100.52 M113.59 123.92 C121.35 115.84, 130 106.95, 133.93 100.52 M122.51 119.75 C123.43 115.68, 127.13 114.66, 133.01 107.67 M122.51 119.75 C124.18 116.97, 126.39 115.13, 133.01 107.67" stroke="#a5d8ff" stroke-width="0.5" fill="none"/><path d="M31.25 0 C45.09 -0.05, 60.75 0.93, 102.75 0 M31.25 0 C52.73 -0.77, 73.51 -0.97, 102.75 0 M102.75 0 C123.64 1.65, 132.66 9.66, 134 31.25 M102.75 0 C121.41 0.51, 132.72 12.4, 134 31.25 M134 31.25 C133.57 47.98, 132.42 66.44, 134 93.75 M134 31.25 C134.85 52.29, 135.28 73.81, 134 93.75 M134 93.75 C134.76 115.52, 122.54 126.72, 102.75 125 M134 93.75 C135.13 116.83, 123.99 123.5, 102.75 125 M102.75 125 C85.07 125.92, 65.13 126.99, 31.25 125 M102.75 125 C82.7 124.4, 63.1 124.26, 31.25 125 M31.25 125 C10.39 124.74, 1.47 115.03, 0 93.75 M31.25 125 C10.95 124.57, 2.01 115.39, 0 93.75 M0 93.75 C0.11 68.75, -1.34 47.15, 0 31.25 M0 93.75 C-0.25 78.8, 1.44 63.38, 0 31.25 M0 31.25 C1.17 8.99, 9.33 -0.68, 31.25 0 M0 31.25 C-0.88 10.45, 10.98 0.22, 31.25 0" stroke="#1e1e1e" stroke-width="1" fill="none"/></g><g stroke-linecap="round" transform="translate(72 227.66109956406495) rotate(0 97.5 62.5)"><path d="M7.66 7.99 C7.66 7.99, 7.66 7.99, 7.66 7.99 M7.66 7.99 C7.66 7.99, 7.66 7.99, 7.66 7.99 M0.84 21.93 C5.91 18.77, 8.93 11.96, 17.9 2.31 M0.84 21.93 C3.92 18.44, 8.79 14.24, 17.9 2.31 M1.23 27.57 C4.18 20.03, 10.75 16.4, 24.2 1.16 M1.23 27.57 C6.14 20.73, 12.49 14.89, 24.2 1.16 M0.97 33.97 C8.47 24.86, 14.54 20.4, 29.84 0.76 M0.97 33.97 C12.32 21.5, 24.07 8.83, 29.84 0.76 M1.37 39.61 C13.54 25.25, 27.16 7.41, 35.48 0.37 M1.37 39.61 C13.33 25.18, 27.27 9.51, 35.48 0.37 M1.11 46.01 C14.99 30.64, 26.08 14.69, 41.13 -0.03 M1.11 46.01 C15.73 30.07, 30.28 14.22, 41.13 -0.03 M1.5 51.66 C11.15 37.59, 21.13 27.03, 46.11 0.33 M1.5 51.66 C10.61 39.62, 20.64 29.54, 46.11 0.33 M1.24 58.05 C9.87 43.47, 23.82 33.23, 51.76 -0.06 M1.24 58.05 C11.64 46.32, 21.54 33.83, 51.76 -0.06 M0.98 64.45 C17.67 44.48, 36.73 25.15, 56.74 0.3 M0.98 64.45 C18.75 42.97, 38.43 20.89, 56.74 0.3 M1.37 70.09 C23.18 42.06, 46.51 15.44, 61.73 0.66 M1.37 70.09 C21.29 48.2, 39.43 27.94, 61.73 0.66 M1.11 76.49 C25.14 46.81, 52.11 18.84, 67.37 0.27 M1.11 76.49 C28.34 46.19, 54.3 14.94, 67.37 0.27 M1.51 82.13 C25.72 51.75, 52.64 23.69, 72.36 0.63 M1.51 82.13 C25.48 54.41, 48.59 27.18, 72.36 0.63 M1.24 88.53 C18.43 69.56, 37.17 47.65, 78 0.23 M1.24 88.53 C30.02 56.09, 59.02 22.48, 78 0.23 M0.98 94.93 C23.19 68.9, 40.54 46.09, 82.99 0.59 M0.98 94.93 C20.14 72.09, 40.61 49.36, 82.99 0.59 M0.72 101.33 C19.77 80.04, 38.49 55.67, 88.63 0.2 M0.72 101.33 C28.91 66.09, 58.61 33.14, 88.63 0.2 M2.43 105.46 C22.02 83.32, 42.4 58.34, 93.62 0.56 M2.43 105.46 C27.1 75.17, 53.69 44.71, 93.62 0.56 M3.48 110.35 C37.01 72.48, 68.38 33.41, 99.26 0.16 M3.48 110.35 C25.7 86.29, 45.41 61.81, 99.26 0.16 M5.84 113.73 C42.78 69.7, 82.69 25.89, 104.25 0.52 M5.84 113.73 C27.58 89.38, 49.13 63.51, 104.25 0.52 M8.2 117.11 C45.13 71.74, 85.67 29.67, 109.89 0.13 M8.2 117.11 C34.49 84.69, 62.25 53.62, 109.89 0.13 M11.22 119.73 C41.71 82.63, 70.19 50.42, 114.88 0.49 M11.22 119.73 C41.16 87.43, 70.85 52.17, 114.88 0.49 M14.9 121.6 C50.91 81.74, 85.65 41.19, 120.52 0.09 M14.9 121.6 C40.01 92.11, 63.31 65.17, 120.52 0.09 M18.57 123.47 C49.31 89.41, 77.81 52.74, 125.51 0.45 M18.57 123.47 C41.11 96.93, 64.87 69.05, 125.51 0.45 M22.9 124.59 C45.64 97.41, 69.82 73.72, 131.15 0.06 M22.9 124.59 C61.73 81.37, 98.79 38.32, 131.15 0.06 M27.89 124.95 C62.23 84.6, 98.86 40.34, 136.14 0.42 M27.89 124.95 C53.93 93.7, 80.91 62.59, 136.14 0.42 M32.88 125.31 C56.55 99.56, 78.58 72.51, 141.78 0.02 M32.88 125.31 C68.94 83.7, 104.79 41.44, 141.78 0.02 M38.52 124.91 C78.78 77.89, 120.29 27.85, 146.77 0.38 M38.52 124.91 C71.81 86.45, 104.62 48.75, 146.77 0.38 M43.51 125.27 C82.52 81.02, 119.69 38.17, 152.41 -0.01 M43.51 125.27 C67.12 98.19, 89.39 70.16, 152.41 -0.01 M48.5 125.63 C71.98 98.18, 95.07 72.91, 157.4 0.35 M48.5 125.63 C90.35 76.16, 135.32 25.92, 157.4 0.35 M54.14 125.24 C82.3 95.6, 109.33 62.25, 163.04 -0.04 M54.14 125.24 C87.08 86.32, 122.13 47.54, 163.04 -0.04 M59.13 125.6 C102.14 77.15, 145.85 28.59, 167.37 1.07 M59.13 125.6 C86.42 95.13, 111.08 63.49, 167.37 1.07 M64.77 125.2 C99.76 82.23, 136.03 41.08, 172.36 1.43 M64.77 125.2 C88.82 97.46, 112.3 69.62, 172.36 1.43 M69.76 125.56 C101.24 86.91, 134.33 52.33, 177.35 1.79 M69.76 125.56 C97.42 94.52, 123.01 65.7, 177.35 1.79 M75.4 125.17 C103.38 92.13, 131.47 61.65, 181.02 3.66 M75.4 125.17 C100.26 96.42, 127.01 66.56, 181.02 3.66 M80.39 125.53 C114.35 85.23, 146.96 47.37, 184.04 6.28 M80.39 125.53 C111.29 89.23, 144.21 53.68, 184.04 6.28 M86.03 125.13 C110.37 94.29, 132.83 70.09, 187.06 8.91 M86.03 125.13 C125.33 79.26, 164.46 33.93, 187.06 8.91 M91.02 125.49 C119.24 94.7, 145.14 64.82, 190.08 11.53 M91.02 125.49 C111.91 102.45, 133.09 76.62, 190.08 11.53 M96.66 125.1 C127.05 88.05, 161.04 51.56, 191.79 15.67 M96.66 125.1 C127.56 86.67, 161.03 49.82, 191.79 15.67 M101.65 125.46 C129.18 91.57, 158.12 59.03, 193.49 19.8 M101.65 125.46 C126.21 98.48, 150.44 72.18, 193.49 19.8 M107.29 125.06 C142.56 85.1, 176.53 45.76, 195.2 23.93 M107.29 125.06 C132.02 97.94, 155.75 70.05, 195.2 23.93 M112.28 125.42 C137.41 99.8, 161.17 71.72, 194.94 30.33 M112.28 125.42 C130.98 105.09, 147.15 84.72, 194.94 30.33 M117.92 125.03 C138.95 102.72, 156.62 81.4, 194.68 36.73 M117.92 125.03 C139.63 100.77, 161.65 74.85, 194.68 36.73 M122.91 125.39 C150.07 93.59, 178.89 64.94, 195.07 42.37 M122.91 125.39 C150.86 95.22, 175.47 65.7, 195.07 42.37 M128.55 125 C145.55 107.39, 157.99 90.85, 194.81 48.77 M128.55 125 C151.03 100.39, 173.01 75.68, 194.81 48.77 M133.54 125.36 C147.75 111.24, 161.29 96.66, 195.21 54.41 M133.54 125.36 C150.17 106.1, 166.62 85.78, 195.21 54.41 M139.18 124.96 C157.05 101.2, 178.92 81.48, 194.94 60.81 M139.18 124.96 C153.33 107.32, 168.26 90.59, 194.94 60.81 M144.17 125.32 C156 109.87, 168.17 98.28, 195.34 66.45 M144.17 125.32 C165.77 101.06, 185.95 78.63, 195.34 66.45 M149.81 124.93 C163.45 109.55, 176.42 95.64, 195.08 72.85 M149.81 124.93 C162.72 110.51, 174.08 96.01, 195.08 72.85 M154.8 125.29 C164.89 112.84, 173.93 103.65, 195.47 78.49 M154.8 125.29 C166.13 111.04, 178.13 96.25, 195.47 78.49 M159.78 125.65 C171.77 112.86, 187.37 94.55, 195.21 84.89 M159.78 125.65 C174.18 109.65, 187.82 94.71, 195.21 84.89 M165.43 125.25 C174.78 116.34, 180.57 104.19, 195.6 90.54 M165.43 125.25 C171.67 117.98, 179.42 110.03, 195.6 90.54 M171.73 124.1 C177.45 117.12, 181.64 112.62, 195.34 96.93 M171.73 124.1 C179.94 114.51, 189.2 104.09, 195.34 96.93 M178.02 122.95 C182.03 116.95, 184.03 114.62, 194.43 104.09 M178.02 122.95 C182.69 116.27, 188.34 111.5, 194.43 104.09" stroke="#a5d8ff" stroke-width="0.5" fill="none"/><path d="M31.25 0 C63.76 0.85, 98.24 -0.72, 163.75 0 M31.25 0 C71.81 0.03, 112.71 1.77, 163.75 0 M163.75 0 C183.24 -0.76, 193.11 10.86, 195 31.25 M163.75 0 C183.31 1.99, 194.53 8.53, 195 31.25 M195 31.25 C193.96 53.95, 195.94 77.88, 195 93.75 M195 31.25 C195.94 55.03, 195.57 80.51, 195 93.75 M195 93.75 C193.95 116.31, 185.56 126.95, 163.75 125 M195 93.75 C195.4 113.08, 183.96 126.2, 163.75 125 M163.75 125 C113.43 126.52, 59.67 126.54, 31.25 125 M163.75 125 C133.4 124.74, 104.5 124.8, 31.25 125 M31.25 125 C11.89 125.45, 0.46 114.21, 0 93.75 M31.25 125 C12.43 125.81, 2.04 114.97, 0 93.75 M0 93.75 C-1.3 74.43, -1.12 49.43, 0 31.25 M0 93.75 C1.4 75.68, 1.09 55.86, 0 31.25 M0 31.25 C-1.09 9.74, 9.65 0.03, 31.25 0 M0 31.25 C0.57 10.64, 9.73 2.1, 31.25 0" stroke="#1e1e1e" stroke-width="1" fill="none"/></g><g stroke-linecap="round" transform="translate(147.5 376.01404074053556) rotate(0 134.5 62.5)"><path d="M7.66 7.99 C7.66 7.99, 7.66 7.99, 7.66 7.99 M7.66 7.99 C7.66 7.99, 7.66 7.99, 7.66 7.99 M0.84 21.93 C7.92 12.9, 11.54 9.11, 17.9 2.31 M0.84 21.93 C6.6 16.91, 9.98 10.77, 17.9 2.31 M1.23 27.57 C10.23 17.79, 18.3 9.15, 24.2 1.16 M1.23 27.57 C8.51 20.01, 15.35 11.73, 24.2 1.16 M0.97 33.97 C7.75 28.38, 15.81 18.98, 29.84 0.76 M0.97 33.97 C10.94 23.79, 20.18 13.25, 29.84 0.76 M1.37 39.61 C14.18 22.87, 29.07 11.63, 35.48 0.37 M1.37 39.61 C10.4 29.38, 19.37 19.32, 35.48 0.37 M1.11 46.01 C9.66 33.25, 23.27 20.73, 41.13 -0.03 M1.11 46.01 C10.55 36.2, 18.22 26.17, 41.13 -0.03 M1.5 51.66 C17.85 32.1, 33.89 12.57, 46.11 0.33 M1.5 51.66 C17.54 33.94, 33.07 15.32, 46.11 0.33 M1.24 58.05 C23.14 35.79, 39.95 10.81, 51.76 -0.06 M1.24 58.05 C16.6 39.2, 33.1 22.5, 51.76 -0.06 M0.98 64.45 C17.69 47.6, 31.87 29.31, 56.74 0.3 M0.98 64.45 C20.84 41.81, 40.1 20.2, 56.74 0.3 M1.37 70.09 C22.62 43.72, 45.59 18.62, 61.73 0.66 M1.37 70.09 C24.85 43.93, 48.54 15.89, 61.73 0.66 M1.11 76.49 C23.57 52.42, 48.48 24.06, 67.37 0.27 M1.11 76.49 C27.01 45.66, 53.06 16.9, 67.37 0.27 M1.51 82.13 C24.38 57.37, 44.27 32.92, 72.36 0.63 M1.51 82.13 C25.94 53.23, 50.07 24.87, 72.36 0.63 M1.24 88.53 C22.3 63.81, 45.31 38.97, 78 0.23 M1.24 88.53 C17.51 69.54, 33.62 51.96, 78 0.23 M0.98 94.93 C27.18 62.25, 56.26 29.03, 82.99 0.59 M0.98 94.93 C33.1 58.81, 62.94 22.88, 82.99 0.59 M0.72 101.33 C32.67 62.37, 67.93 25.46, 88.63 0.2 M0.72 101.33 C34.91 63.09, 67.64 24.6, 88.63 0.2 M2.43 105.46 C27.31 75.34, 52.52 49.27, 93.62 0.56 M2.43 105.46 C36.64 66.26, 70.28 27.59, 93.62 0.56 M3.48 110.35 C36.15 70.04, 69.49 30.61, 99.26 0.16 M3.48 110.35 C39.75 66.73, 77.66 24.92, 99.26 0.16 M5.84 113.73 C29.92 87.27, 49.28 64.32, 104.25 0.52 M5.84 113.73 C34.13 79.97, 62.5 48.55, 104.25 0.52 M8.2 117.11 C41.97 82.06, 72.64 43.86, 109.89 0.13 M8.2 117.11 C49.39 70.73, 90.29 23.33, 109.89 0.13 M11.22 119.73 C48.32 76.91, 88.39 30.79, 114.88 0.49 M11.22 119.73 C33.63 92.83, 56.27 66.59, 114.88 0.49 M14.9 121.6 C54.75 75.8, 95.01 28.72, 120.52 0.09 M14.9 121.6 C43.33 88.56, 74.33 53.6, 120.52 0.09 M18.57 123.47 C47.22 87.68, 77.46 52.78, 125.51 0.45 M18.57 123.47 C52.25 84.34, 85.04 45.64, 125.51 0.45 M22.9 124.59 C54.72 91.1, 84.72 54.42, 131.15 0.06 M22.9 124.59 C44.91 98.9, 69.08 73.45, 131.15 0.06 M27.89 124.95 C65.32 80.25, 100.82 40.42, 136.14 0.42 M27.89 124.95 C53.09 96.1, 78.26 67.85, 136.14 0.42 M32.88 125.31 C69.45 82.47, 104.99 43.58, 141.78 0.02 M32.88 125.31 C56.63 96.83, 82.74 68.74, 141.78 0.02 M38.52 124.91 C72.99 83.08, 108.59 42.91, 146.77 0.38 M38.52 124.91 C74.91 83.32, 112.81 40.09, 146.77 0.38 M43.51 125.27 C73.74 89.94, 103.22 56.83, 152.41 -0.01 M43.51 125.27 C72.79 88.95, 103.83 54.13, 152.41 -0.01 M48.5 125.63 C72.71 98.72, 97.22 73.86, 157.4 0.35 M48.5 125.63 C79.04 92.11, 106.5 59.21, 157.4 0.35 M54.14 125.24 C83.93 89.91, 112.08 56.85, 163.04 -0.04 M54.14 125.24 C80.4 96.92, 105.61 69.1, 163.04 -0.04 M59.13 125.6 C85.47 96.9, 107.24 69.35, 168.03 0.32 M59.13 125.6 C96.28 79.23, 136.83 35.23, 168.03 0.32 M64.77 125.2 C90.49 95.24, 117.06 63.32, 173.67 -0.08 M64.77 125.2 C107.24 75.54, 149.73 26.55, 173.67 -0.08 M69.76 125.56 C108.04 83.75, 146.44 37.38, 178.66 0.28 M69.76 125.56 C96.28 95.58, 123.99 62.02, 178.66 0.28 M75.4 125.17 C115.24 80.61, 153.28 36.11, 183.65 0.64 M75.4 125.17 C98.25 99.92, 120.18 75.38, 183.65 0.64 M80.39 125.53 C122.69 76.85, 166.84 25.95, 189.29 0.25 M80.39 125.53 C111.66 92.05, 140.45 56.73, 189.29 0.25 M86.03 125.13 C126.09 79.78, 171.71 30.75, 194.28 0.61 M86.03 125.13 C128.05 76.3, 169.8 27.24, 194.28 0.61 M91.02 125.49 C132.9 78.2, 172.09 29.62, 199.92 0.21 M91.02 125.49 C117.38 93.55, 143.89 64, 199.92 0.21 M96.66 125.1 C129.48 89.1, 159.74 56.17, 204.91 0.57 M96.66 125.1 C138.43 78.89, 178.33 33.4, 204.91 0.57 M101.65 125.46 C137.03 85.07, 173.43 41.43, 210.55 0.18 M101.65 125.46 C131.9 92.14, 161.49 56.78, 210.55 0.18 M107.29 125.06 C132.54 95.43, 155.95 69.97, 215.54 0.54 M107.29 125.06 C134.55 92.79, 162.23 59.35, 215.54 0.54 M112.28 125.42 C141.78 91.81, 167.12 58.76, 221.18 0.14 M112.28 125.42 C151.06 78.74, 192.23 30.21, 221.18 0.14 M117.92 125.03 C137.65 101.48, 161.15 73.73, 226.17 0.5 M117.92 125.03 C146.17 92.01, 174.72 59.79, 226.17 0.5 M122.91 125.39 C147.8 100.41, 172.02 69.79, 231.81 0.11 M122.91 125.39 C147.85 95.25, 174.91 62.79, 231.81 0.11 M128.55 125 C169.19 76.67, 212.53 26.02, 236.8 0.47 M128.55 125 C157.42 92.28, 184.22 59.31, 236.8 0.47 M133.54 125.36 C158.92 97.78, 182.73 67.05, 241.79 0.83 M133.54 125.36 C164.62 88.27, 197.01 52.99, 241.79 0.83 M139.18 124.96 C183.23 78.53, 222.4 31.79, 246.77 1.19 M139.18 124.96 C168.36 91.96, 197.06 57.63, 246.77 1.19 M144.17 125.32 C182.05 83.14, 221.29 38.95, 250.45 3.06 M144.17 125.32 C185.3 78.59, 226.23 29.23, 250.45 3.06 M149.81 124.93 C190.43 79.34, 231.06 31.52, 254.78 4.17 M149.81 124.93 C187.24 80.24, 225.41 36.22, 254.78 4.17 M154.8 125.29 C178.52 98.67, 202.84 72.38, 258.45 6.04 M154.8 125.29 C189.34 84.67, 225.41 45.49, 258.45 6.04 M159.78 125.65 C183.04 98.94, 203.98 75.74, 261.47 8.67 M159.78 125.65 C193.44 87.61, 226.99 48.16, 261.47 8.67 M165.43 125.25 C195.61 86.06, 228.72 48.82, 263.83 12.05 M165.43 125.25 C205.57 80.17, 243.98 34.07, 263.83 12.05 M170.41 125.61 C192.43 100.29, 219.08 71.53, 266.2 15.42 M170.41 125.61 C194.29 98.44, 216.49 72.77, 266.2 15.42 M176.06 125.22 C203.39 93.04, 233.25 61.93, 267.25 20.31 M176.06 125.22 C208.5 89.6, 239.82 53.06, 267.25 20.31 M181.04 125.58 C211.61 91.83, 237.96 58.76, 268.96 24.45 M181.04 125.58 C205.76 97.8, 227.61 72.35, 268.96 24.45 M186.69 125.18 C207.81 100.39, 225.57 76.98, 269.35 30.09 M186.69 125.18 C207.62 99.99, 228.76 75.43, 269.35 30.09 M191.67 125.54 C215.38 102.39, 236.58 76.41, 269.09 36.49 M191.67 125.54 C210.6 102.58, 230.64 79.87, 269.09 36.49 M197.32 125.15 C213.73 109.94, 227.89 90.43, 268.83 42.89 M197.32 125.15 C216.86 101.14, 237.62 79.66, 268.83 42.89 M202.3 125.51 C223.26 101.47, 247.29 75.11, 269.22 48.53 M202.3 125.51 C228.47 96.7, 252.32 67.84, 269.22 48.53 M207.95 125.11 C224.12 103.84, 242.75 81.12, 268.96 54.93 M207.95 125.11 C223.66 104.76, 240.43 86.14, 268.96 54.93 M212.93 125.47 C231.82 106.35, 246.93 86.7, 269.35 60.57 M212.93 125.47 C228.47 106.62, 243.16 88.41, 269.35 60.57 M218.58 125.08 C237.03 101.48, 257.4 81.63, 269.09 66.97 M218.58 125.08 C237.25 103.06, 256.92 82.82, 269.09 66.97 M223.56 125.44 C235.28 112.78, 246.33 98.72, 269.49 72.61 M223.56 125.44 C237.1 109.2, 249.63 94.54, 269.49 72.61 M229.21 125.05 C244.99 106.07, 258.64 90.59, 269.23 79.01 M229.21 125.05 C237.65 113.63, 247.4 105.22, 269.23 79.01 M234.19 125.41 C244.51 116.46, 251.37 104.49, 269.62 84.65 M234.19 125.41 C243.62 114.96, 252.65 104.04, 269.62 84.65 M239.84 125.01 C252.15 112.46, 263.29 98.21, 269.36 91.05 M239.84 125.01 C249.99 112.88, 260.78 99.9, 269.36 91.05 M245.48 124.62 C251.61 117.28, 262.82 108.22, 269.1 97.45 M245.48 124.62 C253.56 115.34, 261.13 105.81, 269.1 97.45 M251.78 123.47 C256.4 119.37, 260.86 113.07, 266.87 106.11 M251.78 123.47 C255.29 120.44, 257.6 115.59, 266.87 106.11" stroke="#a5d8ff" stroke-width="0.5" fill="none"/><path d="M31.25 0 C89.18 -1.41, 147.37 -0.06, 237.75 0 M31.25 0 C78.45 2.42, 125.01 1.35, 237.75 0 M237.75 0 C256.69 0.44, 267.89 12.15, 269 31.25 M237.75 0 C258.11 -1.89, 270.36 10.52, 269 31.25 M269 31.25 C269.57 49.39, 270.47 64.7, 269 93.75 M269 31.25 C269.85 47.06, 268.94 62.8, 269 93.75 M269 93.75 C269.98 116.53, 258.94 123.7, 237.75 125 M269 93.75 C268.38 115.78, 260.67 127.12, 237.75 125 M237.75 125 C172.45 127.44, 106.79 125.17, 31.25 125 M237.75 125 C176.83 124.53, 116.58 124.84, 31.25 125 M31.25 125 C10.88 124.63, 1.75 115.28, 0 93.75 M31.25 125 C12.45 125.38, 0.93 114.82, 0 93.75 M0 93.75 C-0.67 75.49, 0.33 59.14, 0 31.25 M0 93.75 C0.03 71.19, -1.1 49.71, 0 31.25 M0 31.25 C-0.76 10.44, 10.91 0.19, 31.25 0 M0 31.25 C-0.69 12.51, 9.6 1.36, 31.25 0" stroke="#1e1e1e" stroke-width="1" fill="none"/></g><g stroke-linecap="round" transform="translate(320.5 529.9552172111238) rotate(0 179 62.5)"><path d="M7.66 7.99 C7.66 7.99, 7.66 7.99, 7.66 7.99 M7.66 7.99 C7.66 7.99, 7.66 7.99, 7.66 7.99 M3.46 18.91 C6.78 14.87, 13.31 6.49, 17.9 2.31 M3.46 18.91 C7.89 12.95, 15.06 5.41, 17.9 2.31 M2.55 26.06 C6.26 22.52, 12.12 14.04, 24.2 1.16 M2.55 26.06 C8.28 19.52, 14.56 11.83, 24.2 1.16 M2.94 31.71 C10.66 24.58, 15.38 17.99, 29.84 0.76 M2.94 31.71 C12.69 21.64, 21.77 10.15, 29.84 0.76 M2.68 38.1 C15.49 27.58, 23.96 11.34, 34.17 1.88 M2.68 38.1 C14.01 25.31, 24.29 13.03, 34.17 1.88 M2.42 44.5 C14.78 31.16, 23.04 20.07, 39.16 2.24 M2.42 44.5 C12.71 32.17, 25.42 18.32, 39.16 2.24 M2.81 50.15 C10.05 39.79, 21.6 28.78, 44.14 2.6 M2.81 50.15 C11.98 38.89, 23.7 26.28, 44.14 2.6 M2.55 56.54 C10.29 43.35, 22.54 32.8, 49.79 2.2 M2.55 56.54 C17.59 40.88, 31.79 23.18, 49.79 2.2 M2.95 62.19 C18.27 44.21, 33.61 25.55, 54.77 2.56 M2.95 62.19 C18.75 44.3, 33.87 26.7, 54.77 2.56 M2.68 68.58 C16.45 52.01, 31.44 40.28, 60.42 2.17 M2.68 68.58 C19.35 49.18, 35.06 29.91, 60.42 2.17 M2.42 74.98 C23.83 51.35, 43.02 31.46, 65.4 2.53 M2.42 74.98 C24.33 50.88, 45.5 25.29, 65.4 2.53 M2.82 80.63 C17.15 62.98, 31.95 47.95, 71.05 2.14 M2.82 80.63 C18.99 61.08, 36.13 42.06, 71.05 2.14 M2.56 87.02 C31.15 55.32, 54.68 24.33, 76.04 2.5 M2.56 87.02 C25.13 61.87, 48.8 35.97, 76.04 2.5 M2.95 92.67 C20.01 72.11, 40.45 51.3, 81.68 2.1 M2.95 92.67 C26.87 63.57, 53.58 34.51, 81.68 2.1 M0.72 101.33 C35.82 63.69, 70.54 23.01, 86.67 2.46 M0.72 101.33 C17.24 81.43, 35.21 61.16, 86.67 2.46 M2.43 105.46 C33.02 72.39, 65.32 34.72, 92.31 2.07 M2.43 105.46 C30.94 72.63, 59.48 40.61, 92.31 2.07 M3.48 110.35 C31.83 75.44, 64.76 44.85, 97.3 2.43 M3.48 110.35 C35.64 75.11, 65.45 38.34, 97.3 2.43 M5.84 113.73 C27.17 88.55, 52.27 61.73, 102.94 2.03 M5.84 113.73 C38.64 77.08, 71.01 37.95, 102.94 2.03 M8.2 117.11 C33.39 86.55, 62.37 54.19, 107.93 2.39 M8.2 117.11 C39.04 81.34, 70.42 46.38, 107.93 2.39 M11.22 119.73 C34.43 92.72, 55.56 67.29, 113.57 2 M11.22 119.73 C51.45 73.26, 91.87 28.01, 113.57 2 M14.24 122.36 C53.52 76.82, 94.51 31.34, 118.56 2.36 M14.24 122.36 C37.42 96.53, 59.76 70.4, 118.56 2.36 M18.57 123.47 C56.01 79.72, 96.1 33.87, 124.2 1.96 M18.57 123.47 C56.22 79.33, 94.91 36.11, 124.2 1.96 M22.9 124.59 C46.21 96.34, 66.48 71.22, 129.19 2.32 M22.9 124.59 C50.78 95.1, 77.26 63.59, 129.19 2.32 M27.89 124.95 C66.2 81.32, 105.36 33.75, 134.83 1.93 M27.89 124.95 C53.06 96.94, 79.45 68.54, 134.83 1.93 M32.22 126.06 C66.25 89.11, 98.23 48.83, 139.82 2.29 M32.22 126.06 C65.01 90.42, 95.75 53.57, 139.82 2.29 M37.86 125.67 C75.8 81.86, 113.79 38.94, 145.46 1.89 M37.86 125.67 C71.44 87.66, 102.7 52, 145.46 1.89 M42.85 126.03 C67.77 97.7, 95.38 67.34, 150.45 2.25 M42.85 126.03 C77.62 87.2, 112.25 47.44, 150.45 2.25 M48.5 125.63 C71.95 102.23, 91.49 73.86, 155.43 2.61 M48.5 125.63 C80.85 86.84, 115.11 48.04, 155.43 2.61 M53.48 125.99 C91.74 81.49, 129.01 35.09, 161.08 2.22 M53.48 125.99 C76.36 100.82, 97.19 75.47, 161.08 2.22 M59.13 125.6 C85.61 93.18, 116.66 61.76, 166.06 2.58 M59.13 125.6 C100.06 81.42, 138.52 34.85, 166.06 2.58 M64.11 125.96 C89.39 94.87, 118.77 65.95, 171.71 2.19 M64.11 125.96 C98.51 86.35, 133.3 46.85, 171.71 2.19 M69.76 125.56 C96.68 92.66, 124.05 63.24, 176.69 2.55 M69.76 125.56 C92.2 98.09, 115.59 72.96, 176.69 2.55 M74.74 125.92 C101.5 94.63, 128.62 60.45, 182.34 2.15 M74.74 125.92 C107.92 88.35, 141.9 49.69, 182.34 2.15 M79.73 126.28 C112.08 89.28, 143.32 51.03, 187.32 2.51 M79.73 126.28 C110.14 88.88, 143.29 52.43, 187.32 2.51 M85.37 125.89 C110.07 100.94, 131.85 75.98, 192.97 2.12 M85.37 125.89 C120.49 84.35, 157.49 43.96, 192.97 2.12 M90.36 126.25 C123.51 85.64, 159.58 44.39, 197.95 2.48 M90.36 126.25 C130.65 80.82, 170.45 33.84, 197.95 2.48 M96 125.85 C123.62 96.09, 151.97 61.73, 203.6 2.08 M96 125.85 C120.69 97.7, 146.2 67.38, 203.6 2.08 M100.99 126.21 C133.08 87.46, 165.57 52.31, 208.58 2.44 M100.99 126.21 C132 88.9, 161.79 53.72, 208.58 2.44 M106.63 125.82 C129.39 100.66, 152.87 73.96, 214.23 2.05 M106.63 125.82 C144.57 80.44, 182.85 37.18, 214.23 2.05 M111.62 126.18 C146.87 82.44, 187.99 40.45, 219.21 2.41 M111.62 126.18 C153.47 77.05, 194.03 30.64, 219.21 2.41 M117.26 125.79 C150.11 87.19, 181.6 50.59, 224.86 2.01 M117.26 125.79 C153.7 84.54, 187.78 43.99, 224.86 2.01 M122.25 126.15 C149.68 92.9, 173.89 65.82, 229.84 2.37 M122.25 126.15 C152.47 90.25, 184.02 57.62, 229.84 2.37 M127.89 125.75 C160.36 87.45, 190.74 53.52, 235.49 1.98 M127.89 125.75 C156.76 90.19, 187.6 55.54, 235.49 1.98 M132.88 126.11 C168.83 82.5, 206.1 39.75, 240.47 2.34 M132.88 126.11 C166.44 89.72, 199.31 52.02, 240.47 2.34 M138.52 125.72 C161.07 99.15, 185.38 69.03, 246.12 1.94 M138.52 125.72 C163.93 95.26, 190.96 66.38, 246.12 1.94 M143.51 126.08 C167.9 99.04, 190.28 75.93, 251.1 2.3 M143.51 126.08 C171.88 90.94, 202 58.14, 251.1 2.3 M149.15 125.68 C182.54 86.83, 218.19 48.71, 256.75 1.91 M149.15 125.68 C182.05 87.8, 215.27 49.62, 256.75 1.91 M154.14 126.04 C177.94 100.45, 202.31 70.38, 261.73 2.27 M154.14 126.04 C187.81 89.87, 218.36 52.43, 261.73 2.27 M159.78 125.65 C201.76 78.24, 241.89 32.42, 266.72 2.63 M159.78 125.65 C191.73 87.92, 224.54 50.61, 266.72 2.63 M164.77 126.01 C202.81 81.74, 244.53 36.98, 272.36 2.23 M164.77 126.01 C205.93 76.64, 247.87 28.63, 272.36 2.23 M170.41 125.61 C202.27 90.89, 229.28 56.02, 277.35 2.59 M170.41 125.61 C203.77 87.06, 239.19 46.96, 277.35 2.59 M175.4 125.97 C198.26 102.42, 220.8 74.81, 282.99 2.2 M175.4 125.97 C200.84 96.15, 228 65.14, 282.99 2.2 M181.04 125.58 C202.79 98.02, 227.1 69.91, 287.98 2.56 M181.04 125.58 C218.46 82.02, 257.08 37.47, 287.98 2.56 M186.03 125.94 C221.97 81.81, 261.17 38.22, 293.62 2.17 M186.03 125.94 C212.86 95.03, 240.52 64.27, 293.62 2.17 M191.02 126.3 C220.55 92.21, 248.24 59.19, 298.61 2.53 M191.02 126.3 C225.38 87.13, 258.46 47.09, 298.61 2.53 M196.66 125.9 C218.35 98.74, 241.98 72.82, 304.25 2.13 M196.66 125.9 C229.79 90.34, 262.29 51.39, 304.25 2.13 M201.65 126.26 C233.29 90.99, 264.88 54.43, 309.24 2.49 M201.65 126.26 C239.53 81.09, 279.75 35.66, 309.24 2.49 M207.29 125.87 C247.86 77.26, 289.41 32.14, 314.88 2.1 M207.29 125.87 C248 79.96, 288.75 35.08, 314.88 2.1 M212.28 126.23 C243.14 89.79, 276.17 50.05, 319.87 2.46 M212.28 126.23 C253.09 78.01, 296.39 31.49, 319.87 2.46 M217.92 125.83 C247.59 94.36, 278.17 58.03, 326.83 0.55 M217.92 125.83 C256.37 84.15, 292.94 40.95, 326.83 0.55 M222.91 126.19 C243.71 101.34, 268.04 73.6, 331.81 0.91 M222.91 126.19 C260.26 83, 300.15 38.05, 331.81 0.91 M228.55 125.8 C259.29 90.08, 290.72 52.18, 336.8 1.27 M228.55 125.8 C270.3 80.83, 310.41 33.7, 336.8 1.27 M233.54 126.16 C259.61 93.39, 287.99 62.67, 341.13 2.39 M233.54 126.16 C267.94 85.92, 303.73 46.03, 341.13 2.39 M239.18 125.77 C270.42 89.14, 300.05 57.62, 344.81 4.26 M239.18 125.77 C274.81 84.24, 310.47 45.03, 344.81 4.26 M244.17 126.13 C282.39 86.17, 316.45 43.69, 347.82 6.88 M244.17 126.13 C271.32 94.03, 298.41 62.73, 347.82 6.88 M249.81 125.73 C278.1 92.5, 303.46 59.61, 351.5 8.75 M249.81 125.73 C287.1 80.59, 326.32 38.13, 351.5 8.75 M254.8 126.09 C288.7 87.5, 321.01 52.28, 353.86 12.13 M254.8 126.09 C278 100.06, 298.39 74.82, 353.86 12.13 M260.44 125.7 C289.42 91.4, 315.9 62.04, 355.57 16.26 M260.44 125.7 C293.36 87.6, 327.23 49.56, 355.57 16.26 M265.43 126.06 C296.68 91.28, 327.6 54.15, 357.93 19.64 M265.43 126.06 C296.04 89.32, 329.01 51.87, 357.93 19.64 M271.07 125.66 C303.03 86.82, 336.02 50.36, 358.33 25.29 M271.07 125.66 C305.97 86.1, 339.21 47.86, 358.33 25.29 M276.06 126.02 C294.07 102.66, 313.48 83.31, 358.72 30.93 M276.06 126.02 C298.35 99.8, 320.79 74.94, 358.72 30.93 M281.7 125.63 C312.64 88.79, 343.67 55.61, 358.46 37.33 M281.7 125.63 C308.1 96.47, 335.53 65.09, 358.46 37.33 M286.69 125.99 C310.99 98.18, 333.25 72.91, 358.85 42.97 M286.69 125.99 C312.36 98.84, 335.96 69.52, 358.85 42.97 M292.33 125.59 C318.14 95.98, 346.16 65.03, 358.59 49.37 M292.33 125.59 C314.61 99.88, 336.66 74.43, 358.59 49.37 M297.32 125.95 C318.37 104.71, 336.33 79.94, 358.99 55.01 M297.32 125.95 C320.74 99.8, 344.6 73.23, 358.99 55.01 M302.31 126.31 C314.05 111.07, 327.68 97.67, 358.73 61.41 M302.31 126.31 C324.96 100.26, 347.61 75.71, 358.73 61.41 M307.95 125.92 C324.78 106.52, 342.6 85.06, 359.12 67.05 M307.95 125.92 C322.09 109.73, 338.61 91.82, 359.12 67.05 M312.94 126.28 C330.83 107.74, 345.22 85.77, 358.86 73.45 M312.94 126.28 C323.55 113.05, 334.58 102.39, 358.86 73.45 M318.58 125.88 C332.17 112.24, 344.59 95.92, 359.25 79.09 M318.58 125.88 C331.3 111.24, 343.36 97.02, 359.25 79.09 M323.57 126.24 C334.17 115.09, 344.95 99.18, 358.99 85.49 M323.57 126.24 C333.46 116.39, 343.55 103.97, 358.99 85.49 M328.55 126.6 C338.24 114.98, 352.37 101.39, 359.39 91.13 M328.55 126.6 C338.97 114.29, 349.98 102.64, 359.39 91.13 M334.85 125.46 C343.76 117.78, 349.11 106.89, 360.44 96.02 M334.85 125.46 C340 120.17, 345.71 113.94, 360.44 96.02 M341.15 124.31 C345.18 121.33, 350.11 116.35, 359.52 103.17 M341.15 124.31 C347.55 116.69, 355.67 107.45, 359.52 103.17" stroke="#b2f2bb" stroke-width="0.5" fill="none"/><path d="M31.25 0 C128.81 1.47, 225.1 0.83, 326.75 0 M31.25 0 C92.26 -2.08, 153.56 -1.64, 326.75 0 M326.75 0 C346.47 1.73, 357.59 8.78, 358 31.25 M326.75 0 C348.95 0.1, 357.14 9.18, 358 31.25 M358 31.25 C360.09 51.38, 357.19 71.76, 358 93.75 M358 31.25 C357.72 47.01, 358.73 62.03, 358 93.75 M358 93.75 C358.35 113.28, 347.05 126.04, 326.75 125 M358 93.75 C360.08 116.7, 347.9 126.65, 326.75 125 M326.75 125 C217.17 125.61, 109.78 125.4, 31.25 125 M326.75 125 C244.41 124.88, 161.14 124.58, 31.25 125 M31.25 125 C12.17 125.7, 1.77 114.92, 0 93.75 M31.25 125 C11.35 125.24, -0.83 113.16, 0 93.75 M0 93.75 C0.28 67.27, 1.32 45.78, 0 31.25 M0 93.75 C-0.91 71.41, -0.75 49.76, 0 31.25 M0 31.25 C0.49 10.61, 9.82 1.82, 31.25 0 M0 31.25 C-0.82 11.78, 8.52 0.63, 31.25 0" stroke="#1e1e1e" stroke-width="1" fill="none"/></g><g stroke-linecap="round" transform="translate(455 718.5434525052414) rotate(0 179 62.5)"><path d="M7.66 7.99 C7.66 7.99, 7.66 7.99, 7.66 7.99 M7.66 7.99 C7.66 7.99, 7.66 7.99, 7.66 7.99 M0.84 21.93 C4.44 16.7, 9.75 14.87, 17.9 2.31 M0.84 21.93 C8.4 13.46, 13.18 6.81, 17.9 2.31 M1.23 27.57 C8.85 17.75, 15.48 10.54, 24.2 1.16 M1.23 27.57 C9.46 17.81, 18.15 7.39, 24.2 1.16 M0.97 33.97 C12.38 21.39, 24.11 9.6, 29.84 0.76 M0.97 33.97 C11.7 21.68, 21.64 10.16, 29.84 0.76 M1.37 39.61 C7.48 29.26, 16.75 22.45, 35.48 0.37 M1.37 39.61 C10.8 28.44, 21.04 15.86, 35.48 0.37 M1.11 46.01 C10.14 34.24, 22.58 22.55, 41.13 -0.03 M1.11 46.01 C16.25 29.41, 28.58 13.08, 41.13 -0.03 M1.5 51.66 C15.57 36.02, 25.61 22.37, 46.11 0.33 M1.5 51.66 C18.38 32.78, 31.99 16.61, 46.11 0.33 M1.24 58.05 C18.13 39.41, 34.14 20.27, 51.76 -0.06 M1.24 58.05 C12.83 43.81, 25 30.92, 51.76 -0.06 M0.98 64.45 C19.7 42.1, 36.95 23.72, 56.74 0.3 M0.98 64.45 C12.74 50.69, 23.09 37.52, 56.74 0.3 M1.37 70.09 C16 57.61, 26.73 42.27, 61.73 0.66 M1.37 70.09 C23.51 43.61, 45.56 18.52, 61.73 0.66 M1.11 76.49 C27.7 48.83, 52.24 19.05, 67.37 0.27 M1.11 76.49 C16.19 58.2, 30.84 41.38, 67.37 0.27 M1.51 82.13 C19.22 63.21, 34.16 43.22, 72.36 0.63 M1.51 82.13 C16.32 65.37, 31.77 49.12, 72.36 0.63 M1.24 88.53 C21.36 61.93, 45.89 36.22, 78 0.23 M1.24 88.53 C22.91 65.05, 42.41 39.37, 78 0.23 M0.98 94.93 C26.7 67.03, 49.04 41.98, 82.99 0.59 M0.98 94.93 C25.91 67.82, 49.5 40.47, 82.99 0.59 M0.72 101.33 C28.14 70.04, 50.62 41.11, 88.63 0.2 M0.72 101.33 C24.25 74.65, 47.91 48.31, 88.63 0.2 M2.43 105.46 C26.86 77.62, 48.73 52.58, 93.62 0.56 M2.43 105.46 C25.55 79.6, 48.17 52.45, 93.62 0.56 M3.48 110.35 C29.34 86.18, 51.45 57.98, 99.26 0.16 M3.48 110.35 C25.14 82.88, 48.64 57.03, 99.26 0.16 M5.84 113.73 C29.66 88.33, 53.79 61.61, 104.25 0.52 M5.84 113.73 C28.59 85.56, 51.55 59.48, 104.25 0.52 M8.2 117.11 C49.72 70.33, 87.01 26.09, 109.89 0.13 M8.2 117.11 C44.34 76.71, 78.1 35.25, 109.89 0.13 M11.22 119.73 C45.66 78.59, 85.11 37.36, 114.88 0.49 M11.22 119.73 C39.82 88.04, 67.97 55.35, 114.88 0.49 M14.9 121.6 C56.41 75.6, 95.96 25, 120.52 0.09 M14.9 121.6 C56.74 73.02, 99.35 23.73, 120.52 0.09 M18.57 123.47 C52.07 84.63, 85.34 48.02, 125.51 0.45 M18.57 123.47 C48.65 90.47, 77.17 57.86, 125.51 0.45 M23.56 123.83 C55.51 85.01, 90.6 43.7, 131.15 0.06 M23.56 123.83 C56.78 84.42, 90.27 46.59, 131.15 0.06 M27.89 124.95 C51.14 95.7, 75.12 67.65, 136.14 0.42 M27.89 124.95 C57.08 93.56, 84.62 61.53, 136.14 0.42 M32.88 125.31 C58.47 93.54, 87.26 60.04, 141.78 0.02 M32.88 125.31 C64.29 87.4, 96.81 50.31, 141.78 0.02 M38.52 124.91 C64.37 95.3, 88.74 65.85, 146.77 0.38 M38.52 124.91 C73.5 84.92, 108.86 43.56, 146.77 0.38 M43.51 125.27 C73.5 92.2, 103.5 55.32, 152.41 -0.01 M43.51 125.27 C72.55 92.15, 101.21 59.1, 152.41 -0.01 M48.5 125.63 C75.89 89.91, 106.26 59.13, 157.4 0.35 M48.5 125.63 C81.25 88.68, 114.59 51.34, 157.4 0.35 M54.14 125.24 C80.29 91.61, 107.66 62.34, 163.04 -0.04 M54.14 125.24 C75.32 99.24, 98.77 73.47, 163.04 -0.04 M59.13 125.6 C90.57 93.41, 120.28 55.7, 168.03 0.32 M59.13 125.6 C85.76 92.45, 113.45 60.27, 168.03 0.32 M64.77 125.2 C100.61 87.6, 132.22 49.69, 173.67 -0.08 M64.77 125.2 C90.48 96.21, 114.72 67.6, 173.67 -0.08 M69.76 125.56 C111.43 78.94, 152.44 28.66, 178.66 0.28 M69.76 125.56 C113.41 77.31, 154.89 28.72, 178.66 0.28 M75.4 125.17 C108.1 84.58, 144.2 47.07, 183.65 0.64 M75.4 125.17 C109.63 86.07, 142.2 46.69, 183.65 0.64 M80.39 125.53 C119.3 78.65, 159.19 35.59, 189.29 0.25 M80.39 125.53 C124.33 76.83, 164.81 27.19, 189.29 0.25 M86.03 125.13 C129.18 76.84, 170.45 27.56, 194.28 0.61 M86.03 125.13 C122.86 85.04, 157.89 43.79, 194.28 0.61 M91.02 125.49 C130.49 80, 172.67 34.51, 199.92 0.21 M91.02 125.49 C115.16 96.42, 139.59 69.2, 199.92 0.21 M96.66 125.1 C124.67 92.16, 148.95 63.51, 204.91 0.57 M96.66 125.1 C124.94 91.48, 152.83 58.91, 204.91 0.57 M101.65 125.46 C139.89 82.78, 178.51 40.05, 210.55 0.18 M101.65 125.46 C140.78 79.33, 181.6 32.3, 210.55 0.18 M107.29 125.06 C128.94 100.83, 153.06 74.01, 215.54 0.54 M107.29 125.06 C147.59 79.55, 188.94 33.16, 215.54 0.54 M112.28 125.42 C147.27 89.72, 179.92 48.98, 221.18 0.14 M112.28 125.42 C155.35 76.31, 199.86 25.04, 221.18 0.14 M117.92 125.03 C158.6 77.3, 201.42 30.5, 226.17 0.5 M117.92 125.03 C141.02 96.97, 166.23 69.12, 226.17 0.5 M122.91 125.39 C162.57 80.28, 204.72 28.97, 231.81 0.11 M122.91 125.39 C163.81 82.31, 201.86 36.31, 231.81 0.11 M128.55 125 C161.17 87.87, 195.29 50.15, 236.8 0.47 M128.55 125 C159.71 90.25, 191.64 54.87, 236.8 0.47 M133.54 125.36 C175.57 76.78, 217.69 27.87, 242.44 0.07 M133.54 125.36 C155.99 99.54, 176.46 75.6, 242.44 0.07 M139.18 124.96 C174.66 82.48, 209.7 41.42, 247.43 0.43 M139.18 124.96 C171.66 90.09, 201.28 54.65, 247.43 0.43 M144.17 125.32 C177.19 90.29, 207.23 52.46, 253.07 0.04 M144.17 125.32 C186.49 78.58, 227.06 30.89, 253.07 0.04 M149.81 124.93 C192.66 78.68, 232.65 29.36, 258.06 0.4 M149.81 124.93 C180.16 90.21, 210.27 55.11, 258.06 0.4 M154.8 125.29 C190.03 83.58, 223.85 43.35, 263.7 0.01 M154.8 125.29 C177.91 96.22, 204.57 68.97, 263.7 0.01 M159.78 125.65 C182.47 100.29, 204.99 73.3, 268.69 0.37 M159.78 125.65 C203.72 75.53, 247.4 24.13, 268.69 0.37 M165.43 125.25 C194.99 93.49, 221.53 64.59, 274.33 -0.03 M165.43 125.25 C207.25 77.57, 249.19 28.87, 274.33 -0.03 M170.41 125.61 C210.03 76.86, 253.22 30.23, 279.32 0.33 M170.41 125.61 C201.65 90.5, 230.59 55.18, 279.32 0.33 M176.06 125.22 C208.45 87.15, 237.9 51.58, 284.96 -0.06 M176.06 125.22 C217.48 77.91, 256.63 32.37, 284.96 -0.06 M181.04 125.58 C208.3 93.28, 237.58 65.15, 289.95 0.3 M181.04 125.58 C206.36 96.37, 232.94 66.96, 289.95 0.3 M186.69 125.18 C215.9 92.17, 244.71 57.77, 294.94 0.66 M186.69 125.18 C210.23 99.46, 232.89 74.5, 294.94 0.66 M191.67 125.54 C232.19 78.54, 275.43 28.32, 300.58 0.26 M191.67 125.54 C222.4 88.15, 254.16 52.54, 300.58 0.26 M197.32 125.15 C240.76 76.09, 284.28 25.12, 305.57 0.62 M197.32 125.15 C220.99 96.19, 244.22 68.79, 305.57 0.62 M202.3 125.51 C243.14 78.57, 282.39 35.42, 311.21 0.23 M202.3 125.51 C242.7 80.07, 282.78 33.49, 311.21 0.23 M207.95 125.11 C241.73 87.67, 277.37 47.43, 316.2 0.59 M207.95 125.11 C230.72 101.07, 252.82 75.59, 316.2 0.59 M212.93 125.47 C252.25 79.01, 293.83 33.93, 321.84 0.19 M212.93 125.47 C241.6 96.12, 267.18 64.47, 321.84 0.19 M218.58 125.08 C245.56 93.5, 270.59 64.65, 326.83 0.55 M218.58 125.08 C246.9 91.14, 275.48 56.49, 326.83 0.55 M223.56 125.44 C264.53 78.51, 305.6 32.85, 331.81 0.91 M223.56 125.44 C252.05 93.82, 277.92 63.99, 331.81 0.91 M229.21 125.05 C251.58 97.21, 277.99 70, 336.8 1.27 M229.21 125.05 C251.2 98.62, 273.86 72.58, 336.8 1.27 M234.19 125.41 C274.59 80.5, 316.11 32.95, 341.13 2.39 M234.19 125.41 C273.1 81.94, 310.27 38.25, 341.13 2.39 M239.84 125.01 C271.15 91.61, 301.96 53.64, 344.81 4.26 M239.84 125.01 C273.27 88.39, 306.54 48.63, 344.81 4.26 M244.82 125.37 C284.22 78.49, 322.87 33.16, 347.82 6.88 M244.82 125.37 C271.19 94.92, 297.87 65.11, 347.82 6.88 M250.47 124.98 C281.84 85.06, 318.77 48.6, 351.5 8.75 M250.47 124.98 C288.99 83.44, 326.26 39.85, 351.5 8.75 M255.45 125.34 C274.97 104.67, 293.4 79.48, 353.21 12.88 M255.45 125.34 C286.7 87.48, 320.61 49.25, 353.21 12.88 M261.1 124.94 C296.09 85.48, 332.95 42.88, 355.57 16.26 M261.1 124.94 C285.66 97.6, 308.81 70.8, 355.57 16.26 M266.08 125.3 C288.15 98.26, 310.91 76.03, 357.28 20.4 M266.08 125.3 C291.33 96.77, 316.62 69.78, 357.28 20.4 M271.73 124.91 C296.59 96.99, 325.85 64.73, 357.67 26.04 M271.73 124.91 C298.97 93.54, 326.35 61.75, 357.67 26.04 M276.71 125.27 C302.95 97.17, 326.9 68.41, 358.07 31.68 M276.71 125.27 C293.67 106.58, 312.52 85.45, 358.07 31.68 M281.7 125.63 C310.28 94.55, 339.29 59.58, 357.8 38.08 M281.7 125.63 C302.78 101.68, 322.35 79.6, 357.8 38.08 M287.34 125.23 C304.75 105.68, 322.23 84.45, 358.2 43.72 M287.34 125.23 C303.12 105.23, 321.78 85.29, 358.2 43.72 M292.33 125.59 C311.33 104.69, 328.56 85.64, 357.94 50.12 M292.33 125.59 C306.61 108.94, 321.34 93.54, 357.94 50.12 M297.97 125.2 C313.1 106.04, 331.44 85.59, 358.33 55.77 M297.97 125.2 C316.52 104.81, 333.45 83.41, 358.33 55.77 M302.96 125.56 C317.63 109.57, 335.47 90.98, 358.07 62.16 M302.96 125.56 C317.3 110.41, 330.82 95.14, 358.07 62.16 M308.6 125.16 C318.74 112.7, 330.83 99.42, 358.46 67.81 M308.6 125.16 C321.61 111.25, 333.87 97.93, 358.46 67.81 M313.59 125.52 C323.79 110.21, 336.83 96.64, 358.2 74.2 M313.59 125.52 C327.07 111.48, 340.56 94.43, 358.2 74.2 M319.23 125.13 C331.67 110.16, 346.78 93.24, 358.6 79.85 M319.23 125.13 C326.65 116, 335.84 105.9, 358.6 79.85 M324.22 125.49 C336.7 108.58, 349.42 95.22, 358.34 86.24 M324.22 125.49 C331.94 116.5, 338.77 109.99, 358.34 86.24 M329.86 125.1 C339.14 116.95, 347.39 104.11, 358.07 92.64 M329.86 125.1 C336.66 117.67, 343.66 110.12, 358.07 92.64 M336.16 123.95 C340.87 116.2, 345.54 109.06, 357.16 99.8 M336.16 123.95 C342.87 116.89, 348.17 109.23, 357.16 99.8 M343.12 122.04 C347.65 119.07, 353.03 111.78, 356.24 106.95 M343.12 122.04 C346.95 117.4, 349.67 114.82, 356.24 106.95" stroke="#b2f2bb" stroke-width="0.5" fill="none"/><path d="M31.25 0 C104.45 -0.84, 178.4 -0.56, 326.75 0 M31.25 0 C143.51 0.99, 256.76 1.47, 326.75 0 M326.75 0 C347.18 -1.64, 359.19 10.5, 358 31.25 M326.75 0 C346.72 -1.23, 358.28 11.46, 358 31.25 M358 31.25 C357.48 56.87, 357.33 80.26, 358 93.75 M358 31.25 C358.16 53.9, 357.85 73.94, 358 93.75 M358 93.75 C357.46 115.63, 349.4 126.84, 326.75 125 M358 93.75 C358.32 116.24, 349.12 124.36, 326.75 125 M326.75 125 C217.93 122.61, 108.97 123.68, 31.25 125 M326.75 125 C242.06 125.35, 157.68 125.75, 31.25 125 M31.25 125 C12.19 125.33, 0.81 114.79, 0 93.75 M31.25 125 C9.59 123.58, 2.25 113.37, 0 93.75 M0 93.75 C1.01 82.27, 1.06 68.4, 0 31.25 M0 93.75 C-0.04 79.48, 0.59 65.27, 0 31.25 M0 31.25 C-0.6 12.24, 9.7 1.18, 31.25 0 M0 31.25 C-1.89 11.05, 12.62 -0.05, 31.25 0" stroke="#1e1e1e" stroke-width="1" fill="none"/></g><g stroke-linecap="round"><g transform="translate(147 11.102276034653187) rotate(0 0 473.5)"><path d="M-0.19 -1.1 C-0.24 157.04, 0.14 790.05, 0.03 947.99 M-1.75 0.93 C-1.98 158.83, -1.47 788.6, -0.9 946.38" stroke="#e03131" stroke-width="1" fill="none"/></g></g><mask/><g stroke-linecap="round" transform="translate(10.30718954248357 55.904536002981104) rotate(0 200.5882352941175 64.11764705882354)"><path d="M7.86 8.16 C7.86 8.16, 7.86 8.16, 7.86 8.16 M7.86 8.16 C7.86 8.16, 7.86 8.16, 7.86 8.16 M2.35 20.59 C5.18 17.29, 11.74 9.75, 18.1 2.48 M2.35 20.59 C7.84 13.4, 14.35 6.02, 18.1 2.48 M1.43 27.75 C4.21 22.56, 10.7 18.91, 24.4 1.33 M1.43 27.75 C6.49 21.71, 13.16 14.63, 24.4 1.33 M1.17 34.14 C7.82 26.19, 15.82 18.25, 30.7 0.18 M1.17 34.14 C11.14 22.09, 20.94 10.05, 30.7 0.18 M0.91 40.54 C10.78 27.44, 23.91 14.73, 36.34 -0.21 M0.91 40.54 C14.66 24, 27.86 9.37, 36.34 -0.21 M1.31 46.19 C15.55 34.25, 24.18 20.35, 41.33 0.15 M1.31 46.19 C11.45 34.42, 22.68 22.26, 41.33 0.15 M1.04 52.58 C18.29 31.7, 32.36 13.43, 46.97 -0.25 M1.04 52.58 C13.38 39.33, 25.26 24.86, 46.97 -0.25 M1.44 58.23 C15.13 40.62, 31.12 27.68, 51.96 0.11 M1.44 58.23 C17.37 40.94, 32.28 22.22, 51.96 0.11 M1.18 64.62 C20.64 38.84, 43.85 15.42, 57.6 -0.28 M1.18 64.62 C21.57 40.34, 44.13 15.15, 57.6 -0.28 M0.92 71.02 C23.73 44.28, 48.84 13.31, 62.59 0.08 M0.92 71.02 C18.4 53.32, 33.69 33.01, 62.59 0.08 M1.31 76.67 C25.75 51.02, 46.9 21.83, 67.57 0.44 M1.31 76.67 C19.73 54.76, 37.91 33.04, 67.57 0.44 M1.05 83.06 C16.77 66.41, 35.08 47.33, 73.22 0.04 M1.05 83.06 C26.14 54.11, 50.45 26.12, 73.22 0.04 M1.44 88.71 C23.21 63.41, 49.68 35.91, 78.2 0.41 M1.44 88.71 C25.64 60.47, 48.84 33.43, 78.2 0.41 M1.18 95.1 C32.84 56.86, 66.75 21.64, 83.85 0.01 M1.18 95.1 C27.12 66.2, 53.07 34.94, 83.85 0.01 M0.92 101.5 C35.25 61.69, 66.59 24.42, 88.83 0.37 M0.92 101.5 C21.64 78.08, 39.61 55.74, 88.83 0.37 M1.97 106.39 C24.02 81.96, 47.25 53.99, 94.48 -0.02 M1.97 106.39 C39.59 64.49, 74.67 21.72, 94.48 -0.02 M3.02 111.28 C21.34 87.09, 40.63 65, 99.46 0.34 M3.02 111.28 C38.22 70.65, 73.03 30.73, 99.46 0.34 M4.73 115.41 C43.06 68.3, 86.2 20.88, 105.11 -0.06 M4.73 115.41 C44.31 70.68, 82.24 24.92, 105.11 -0.06 M7.09 118.79 C39.76 81.16, 71.84 41.03, 110.09 0.3 M7.09 118.79 C40.62 81.99, 70.8 46.23, 110.09 0.3 M10.11 121.42 C51.04 74.6, 94.67 24.74, 115.74 -0.09 M10.11 121.42 C43.64 82.99, 76.84 44.69, 115.74 -0.09 M13.13 124.04 C50.08 81.05, 88.35 37.49, 120.72 0.27 M13.13 124.04 C35.74 96.54, 58.53 70.3, 120.72 0.27 M16.8 125.91 C43.14 93.71, 69.97 67.31, 126.37 -0.13 M16.8 125.91 C58.22 77.74, 100.32 29.05, 126.37 -0.13 M21.14 127.02 C43.22 102.53, 66.69 77.18, 131.35 0.23 M21.14 127.02 C51.31 95.7, 79.5 62.37, 131.35 0.23 M25.47 128.14 C53.05 96.14, 77.9 64.95, 137 -0.16 M25.47 128.14 C50.95 96.72, 78.39 67.52, 137 -0.16 M30.45 128.5 C62.79 92.12, 95.87 57.45, 141.98 0.2 M30.45 128.5 C55.32 99.77, 78.65 71.83, 141.98 0.2 M36.1 128.1 C60.96 98.92, 84.27 71.18, 147.63 -0.2 M36.1 128.1 C69.75 91.45, 102.2 51.72, 147.63 -0.2 M41.08 128.46 C75.44 92.57, 106.35 53.13, 152.61 0.16 M41.08 128.46 C74.76 90.58, 105.89 54.96, 152.61 0.16 M46.73 128.07 C75.93 94.27, 108.14 57.52, 158.26 -0.23 M46.73 128.07 C69.5 101.09, 92.5 73.36, 158.26 -0.23 M51.71 128.43 C80.15 97.03, 105.39 68.15, 163.24 0.13 M51.71 128.43 C79.98 95.02, 107.13 63.03, 163.24 0.13 M57.36 128.04 C99.63 80.55, 140.79 31.81, 168.89 -0.27 M57.36 128.04 C82.2 98.78, 106.04 71.19, 168.89 -0.27 M62.34 128.4 C108.65 77.51, 149.45 27.9, 173.87 0.09 M62.34 128.4 C97.05 88.71, 130.95 48.29, 173.87 0.09 M67.99 128 C95.14 99.49, 120.64 68.73, 178.86 0.45 M67.99 128 C111.74 78.09, 153.58 29.57, 178.86 0.45 M72.97 128.36 C109.91 82.78, 149.51 37.14, 184.5 0.06 M72.97 128.36 C105.88 91.54, 135.84 55.82, 184.5 0.06 M78.62 127.97 C103.75 100.57, 126.16 69.14, 189.49 0.42 M78.62 127.97 C118.58 82.46, 157.33 36.34, 189.49 0.42 M83.6 128.33 C127.48 80.09, 168.46 30.13, 195.13 0.03 M83.6 128.33 C124.82 81.99, 166.07 35.13, 195.13 0.03 M89.25 127.93 C113.52 97.81, 137.63 71.98, 200.12 0.39 M89.25 127.93 C134.28 76.49, 177.34 25.71, 200.12 0.39 M94.23 128.29 C125.92 92.27, 157.76 57.64, 205.76 -0.01 M94.23 128.29 C136.63 80.34, 178.38 32.06, 205.76 -0.01 M99.88 127.9 C141.7 82.55, 181.38 31.74, 210.75 0.35 M99.88 127.9 C142.63 76.84, 184.41 27.97, 210.75 0.35 M104.86 128.26 C135.76 93.86, 165.9 58.79, 216.39 -0.04 M104.86 128.26 C143.93 82.64, 184.4 37.75, 216.39 -0.04 M110.51 127.86 C149.15 80.88, 191.16 34.22, 221.38 0.32 M110.51 127.86 C155.09 75.84, 197.89 24.82, 221.38 0.32 M115.49 128.22 C153.12 85.73, 192.83 38.36, 227.02 -0.08 M115.49 128.22 C151.21 88.35, 186.3 47.97, 227.02 -0.08 M120.48 128.58 C157.93 84.32, 196.94 39.44, 232.01 0.28 M120.48 128.58 C156.44 89.3, 191.11 49.85, 232.01 0.28 M126.12 128.19 C163.75 85, 204.24 38.98, 237.65 -0.11 M126.12 128.19 C159.39 89.9, 193.38 50.65, 237.65 -0.11 M131.11 128.55 C171.71 82.63, 209.82 35.96, 242.64 0.25 M131.11 128.55 C157.31 100.52, 181.51 70.67, 242.64 0.25 M136.75 128.15 C163.92 99.82, 186.81 70.29, 248.28 -0.15 M136.75 128.15 C177.53 82.91, 217.8 36.09, 248.28 -0.15 M141.74 128.51 C179.64 84.17, 219.25 35.75, 253.27 0.21 M141.74 128.51 C166.72 98.05, 192.38 70.39, 253.27 0.21 M147.38 128.12 C172.1 104.17, 194.2 74.06, 258.91 -0.18 M147.38 128.12 C185.11 86.07, 222.49 42.54, 258.91 -0.18 M152.37 128.48 C192.33 79.35, 234.39 33.1, 263.9 0.18 M152.37 128.48 C178.22 100.81, 205.66 69.69, 263.9 0.18 M158.01 128.08 C183.26 99.23, 210.39 66.59, 269.54 -0.22 M158.01 128.08 C188.03 91.4, 219.86 57.1, 269.54 -0.22 M163 128.44 C198.37 87.32, 234.47 48.63, 274.53 0.14 M163 128.44 C199.52 86.81, 236.48 43.84, 274.53 0.14 M168.64 128.05 C205.4 83.9, 242.87 41.83, 280.17 -0.25 M168.64 128.05 C198.64 96.3, 227.42 61.47, 280.17 -0.25 M173.63 128.41 C201.65 97.77, 228.52 65.52, 285.16 0.11 M173.63 128.41 C201.86 94.82, 231.54 63.39, 285.16 0.11 M179.27 128.02 C205.86 98.97, 228.28 70.93, 290.8 -0.28 M179.27 128.02 C217.72 82.94, 255.82 39.3, 290.8 -0.28 M184.26 128.38 C215.43 95.9, 245.39 62.4, 295.79 0.08 M184.26 128.38 C218.69 90.24, 253.42 49.78, 295.79 0.08 M189.9 127.98 C224.06 87.53, 260.55 46.58, 300.78 0.44 M189.9 127.98 C211.74 100.82, 235.36 74.25, 300.78 0.44 M194.89 128.34 C236.05 79.12, 281.14 31.75, 306.42 0.04 M194.89 128.34 C222.67 97.75, 247.66 67.85, 306.42 0.04 M200.53 127.95 C238.13 85.17, 274.12 39.86, 311.41 0.4 M200.53 127.95 C236.27 85.17, 271.67 43.88, 311.41 0.4 M205.52 128.31 C241.4 88.99, 275.25 49.5, 317.05 0.01 M205.52 128.31 C246.69 81.15, 287.63 33.81, 317.05 0.01 M211.16 127.91 C241.65 93.94, 271.13 59.25, 322.04 0.37 M211.16 127.91 C255.32 79.5, 298.1 30.14, 322.04 0.37 M216.15 128.27 C239.4 96.99, 264.28 70.14, 327.68 -0.03 M216.15 128.27 C243.96 97.38, 268.53 66.86, 327.68 -0.03 M221.79 127.88 C246.45 102.37, 270.48 71.61, 332.67 0.33 M221.79 127.88 C254.29 92.55, 284.48 55.63, 332.67 0.33 M226.78 128.24 C255.26 94.83, 282.24 62.03, 338.31 -0.06 M226.78 128.24 C269.1 78.97, 311.17 28.67, 338.31 -0.06 M231.77 128.6 C271.84 82.12, 313.2 34.68, 343.3 0.3 M231.77 128.6 C267.47 87.75, 304.77 45.56, 343.3 0.3 M237.41 128.2 C275.84 81.16, 316.93 38.1, 348.94 -0.1 M237.41 128.2 C279.89 79.25, 322.7 31.18, 348.94 -0.1 M242.4 128.56 C266.56 99.35, 290.61 75.74, 353.93 0.26 M242.4 128.56 C266.33 100.99, 289.58 74.19, 353.93 0.26 M248.04 128.17 C275.3 98.27, 301.3 70.22, 359.57 -0.13 M248.04 128.17 C288.64 82.2, 330.41 35.27, 359.57 -0.13 M253.03 128.53 C288.11 86.09, 321.18 47.16, 364.56 0.23 M253.03 128.53 C280.21 98.36, 307.48 67.59, 364.56 0.23 M258.67 128.13 C283.66 99.17, 313.37 68.12, 369.55 0.59 M258.67 128.13 C292.41 86.46, 328.5 45.53, 369.55 0.59 M263.66 128.49 C306.08 85.37, 342 37.01, 374.53 0.95 M263.66 128.49 C300.49 83.44, 340.79 38.35, 374.53 0.95 M269.3 128.1 C297.17 98.47, 325.08 63.98, 378.86 2.06 M269.3 128.1 C293.05 102.27, 317.14 74.84, 378.86 2.06 M274.29 128.46 C306.39 90.97, 339.62 54.01, 383.85 2.42 M274.29 128.46 C303.36 96.9, 331.41 64.5, 383.85 2.42 M279.93 128.07 C305.65 99.06, 332.47 66.07, 387.53 4.29 M279.93 128.07 C303.14 102.97, 325.74 77.25, 387.53 4.29 M284.92 128.43 C326.11 79.62, 367.09 33.78, 390.54 6.92 M284.92 128.43 C314.59 94.36, 343.37 60.49, 390.54 6.92 M290.56 128.03 C313.89 100.24, 340.49 67.68, 394.22 8.79 M290.56 128.03 C322.82 91.91, 352.98 56.52, 394.22 8.79 M295.55 128.39 C318.47 102.38, 335.46 79.55, 396.58 12.17 M295.55 128.39 C335.42 85.43, 372.94 40.49, 396.58 12.17 M301.19 128 C324.98 102.31, 345.22 75.95, 398.29 16.3 M301.19 128 C327.89 97.22, 355.54 65.74, 398.29 16.3 M306.18 128.36 C339.21 86.3, 374.42 45.6, 400 20.43 M306.18 128.36 C334.03 97.59, 360.34 66.4, 400 20.43 M311.82 127.96 C332.25 105.15, 351.17 81.86, 401.05 25.32 M311.82 127.96 C340.91 92, 371.38 58.08, 401.05 25.32 M316.81 128.32 C335.75 106.53, 355.47 79.67, 401.44 30.96 M316.81 128.32 C346.4 94.44, 376.31 60.35, 401.44 30.96 M322.45 127.93 C352.69 95.27, 379.88 60.84, 401.18 37.36 M322.45 127.93 C345.73 101.45, 367.31 77.06, 401.18 37.36 M327.44 128.29 C344.37 107.7, 360.47 89.58, 401.57 43.01 M327.44 128.29 C351.47 100.77, 375.66 73.15, 401.57 43.01 M333.08 127.89 C353.77 105.68, 375.85 80.3, 401.31 49.4 M333.08 127.89 C353.45 102.43, 376.34 77.3, 401.31 49.4 M338.07 128.25 C356.4 107.06, 372.96 84.66, 401.71 55.05 M338.07 128.25 C360.21 100.71, 385.09 73.69, 401.71 55.05 M343.06 128.61 C365.21 104.22, 385.03 82.98, 401.45 61.44 M343.06 128.61 C357.75 111.17, 374.04 93.7, 401.45 61.44 M348.7 128.22 C361.89 115.1, 372.07 102.99, 401.84 67.09 M348.7 128.22 C362.66 111.65, 376.24 96.43, 401.84 67.09 M353.69 128.58 C367.68 113.36, 382.09 94.21, 401.58 73.48 M353.69 128.58 C370.2 110.92, 384.3 91.67, 401.58 73.48 M359.33 128.18 C374.08 112.98, 388.76 96.45, 401.97 79.13 M359.33 128.18 C373.67 109.48, 389.21 93.38, 401.97 79.13 M364.32 128.54 C374.13 113.6, 385.18 103.26, 401.71 85.53 M364.32 128.54 C378.54 112.38, 391.88 96.97, 401.71 85.53 M369.3 128.9 C379.77 118.33, 387.55 110.74, 401.45 91.92 M369.3 128.9 C377.38 120.41, 386.12 110.35, 401.45 91.92 M375.6 127.75 C386.08 118.5, 392.82 105.93, 401.19 98.32 M375.6 127.75 C384.93 116.47, 396.01 105.67, 401.19 98.32 M381.9 126.61 C389.39 122.17, 391.12 113.84, 400.27 105.47 M381.9 126.61 C388.6 119.44, 395.68 112.83, 400.27 105.47 M389.51 123.95 C391.24 121.87, 394.66 117.82, 398.04 114.14 M389.51 123.95 C391.49 122.46, 393.49 119.58, 398.04 114.14" stroke="#ffec99" stroke-width="0.5" fill="none"/><path d="M32 0 C115.36 -1.36, 200.62 -1.19, 369.18 0 M32 0 C116.56 1.13, 200.04 1.24, 369.18 0 M369.18 0 C391.18 -0.17, 403.12 12.18, 401.18 32 M369.18 0 C392.48 -1, 399.56 11.72, 401.18 32 M401.18 32 C401.04 47.44, 400.69 62.37, 401.18 96.24 M401.18 32 C401.21 54.65, 401.01 78.63, 401.18 96.24 M401.18 96.24 C402.23 119.24, 390.47 126.56, 369.18 128.24 M401.18 96.24 C401.08 119.26, 392.35 130.13, 369.18 128.24 M369.18 128.24 C297.13 126.03, 227.32 127.31, 32 128.24 M369.18 128.24 C300.55 127.54, 232.29 128.04, 32 128.24 M32 128.24 C10.71 126.84, 1.55 115.69, 0 96.24 M32 128.24 C8.76 127.24, -1.22 118.4, 0 96.24 M0 96.24 C-1.48 73.42, -0.87 45.4, 0 32 M0 96.24 C1.41 74.04, 0.44 49.91, 0 32 M0 32 C0.22 11.15, 8.85 -0.74, 32 0 M0 32 C0.71 10.33, 12.54 -0.35, 32 0" stroke="#1e1e1e" stroke-width="1" fill="none"/></g></svg>